TiroDevaMarathi-Italic.ufo
<glyph name="dJha" format="2">
  <advance width="758"/>
  <unicode hex="091D"/>
  <outline>
    <contour>
      <point x="544" y="214" type="curve" smooth="yes"/>
      <point x="559" y="214"/>
      <point x="579" y="216"/>
      <point x="587" y="221" type="curve"/>
      <point x="610" y="321" type="line"/>
      <point x="576" y="291"/>
      <point x="539" y="277"/>
      <point x="493" y="277" type="curve" smooth="yes"/>
      <point x="448" y="277"/>
      <point x="419" y="290"/>
      <point x="402" y="303" type="curve"/>
      <point x="434" y="236" type="line"/>
      <point x="450" y="249" type="line"/>
      <point x="467" y="231"/>
      <point x="498" y="214"/>
    </contour>
    <contour>
      <point x="620" y="-10" type="line"/>
      <point x="733" y="577" type="line"/>
      <point x="649" y="577" type="line"/>
      <point x="543" y="52" type="line"/>
      <point x="610" y="-10" type="line"/>
    </contour>
    <contour>
      <point x="843" y="545" type="line"/>
      <point x="845" y="555" type="line"/>
      <point x="814" y="620" type="line"/>
      <point x="34" y="620" type="line"/>
      <point x="32" y="610" type="line"/>
      <point x="63" y="545" type="line"/>
    </contour>
    <contour>
      <point x="220" y="20" type="curve" smooth="yes"/>
      <point x="331" y="20"/>
      <point x="462" y="79"/>
      <point x="462" y="177" type="curve" smooth="yes"/>
      <point x="462" y="239"/>
      <point x="422" y="319"/>
      <point x="351" y="319" type="curve" smooth="yes"/>
      <point x="315" y="319"/>
      <point x="223" y="291"/>
      <point x="177" y="291" type="curve" smooth="yes"/>
      <point x="145" y="291"/>
      <point x="132" y="314"/>
      <point x="132" y="337" type="curve" smooth="yes"/>
      <point x="132" y="372"/>
      <point x="158" y="395"/>
      <point x="246" y="395" type="curve" smooth="yes"/>
      <point x="450" y="395" type="line"/>
      <point x="464" y="403" type="line"/>
      <point x="473" y="452"/>
      <point x="485" y="515"/>
      <point x="494" y="570" type="curve"/>
      <point x="415" y="570" type="line"/>
      <point x="396" y="469" type="line"/>
      <point x="222" y="469" type="line" smooth="yes"/>
      <point x="129" y="469"/>
      <point x="71" y="443"/>
      <point x="71" y="371" type="curve" smooth="yes"/>
      <point x="71" y="298"/>
      <point x="120" y="220"/>
      <point x="208" y="220" type="curve" smooth="yes"/>
      <point x="250" y="220"/>
      <point x="329" y="247"/>
      <point x="364" y="247" type="curve" smooth="yes"/>
      <point x="384" y="247"/>
      <point x="403" y="240"/>
      <point x="403" y="213" type="curve" smooth="yes"/>
      <point x="403" y="141"/>
      <point x="301" y="96"/>
      <point x="209" y="91" type="curve"/>
      <point x="172" y="151"/>
      <point x="133" y="177"/>
      <point x="104" y="177" type="curve" smooth="yes"/>
      <point x="82" y="177"/>
      <point x="63" y="151"/>
      <point x="63" y="120" type="curve" smooth="yes"/>
      <point x="63" y="64"/>
      <point x="142" y="20"/>
    </contour>
    <contour>
      <point x="258" y="-155" type="line"/>
      <point x="314" y="-124" type="line"/>
      <point x="232" y="33" type="line"/>
      <point x="182" y="34" type="line"/>
      <point x="249" y="-155" type="line"/>
    </contour>
  </outline>
  <guideline angle="125.746" x="301" y="0"/>
</glyph>
<glyph name="dPha" format="2">
  <advance width="772"/>
  <unicode hex="092B"/>
  <outline>
    <contour>
      <point x="620" y="63" type="line"/>
      <point x="694" y="143"/>
      <point x="727" y="188"/>
      <point x="727" y="264" type="curve" smooth="yes"/>
      <point x="727" y="361"/>
      <point x="651" y="424"/>
      <point x="604" y="424" type="curve" smooth="yes"/>
      <point x="569" y="424"/>
      <point x="524" y="405"/>
      <point x="390" y="318" type="curve" smooth="yes"/>
      <point x="316" y="270"/>
      <point x="266" y="233"/>
      <point x="227" y="233" type="curve" smooth="yes"/>
      <point x="199" y="233"/>
      <point x="174" y="253"/>
      <point x="174" y="301" type="curve" smooth="yes"/>
      <point x="174" y="310"/>
      <point x="175" y="321"/>
      <point x="177" y="332" type="curve" smooth="yes"/>
      <point x="226" y="592" type="line"/>
      <point x="142" y="592" type="line"/>
      <point x="130" y="532"/>
      <point x="112" y="447"/>
      <point x="102" y="396" type="curve" smooth="yes"/>
      <point x="96" y="364"/>
      <point x="93" y="336"/>
      <point x="93" y="335" type="curve"/>
      <point x="93" y="266"/>
      <point x="168" y="168"/>
      <point x="258" y="168" type="curve" smooth="yes"/>
      <point x="302" y="168"/>
      <point x="338" y="189"/>
      <point x="412" y="238" type="curve" smooth="yes"/>
      <point x="491" y="291"/>
      <point x="584" y="349"/>
      <point x="627" y="349" type="curve" smooth="yes"/>
      <point x="651" y="349"/>
      <point x="671" y="332"/>
      <point x="671" y="307" type="curve" smooth="yes"/>
      <point x="671" y="259"/>
      <point x="614" y="186"/>
      <point x="550" y="125" type="curve"/>
      <point x="612" y="63" type="line"/>
    </contour>
    <contour>
      <point x="401" y="-10" type="line"/>
      <point x="516" y="592" type="line"/>
      <point x="433" y="592" type="line"/>
      <point x="324" y="54" type="line"/>
      <point x="391" y="-10" type="line"/>
    </contour>
    <contour>
      <point x="857" y="545" type="line"/>
      <point x="859" y="555" type="line"/>
      <point x="828" y="620" type="line"/>
      <point x="34" y="620" type="line"/>
      <point x="32" y="610" type="line"/>
      <point x="63" y="545" type="line"/>
    </contour>
  </outline>
</glyph>
<glyph name="dSignCandraE" format="2">
  <unicode hex="0945"/>
  <outline>
    <contour>
      <point x="-217" y="838" type="line"/>
      <point x="-191" y="742"/>
      <point x="-130" y="672"/>
      <point x="-37" y="672" type="curve" smooth="yes"/>
      <point x="35" y="672"/>
      <point x="108" y="716"/>
      <point x="148" y="813" type="curve"/>
      <point x="78" y="866" type="line"/>
      <point x="49" y="800"/>
      <point x="6" y="739"/>
      <point x="-63" y="739" type="curve" smooth="yes"/>
      <point x="-108" y="739"/>
      <point x="-151" y="770"/>
      <point x="-180" y="856" type="curve"/>
    </contour>
  </outline>
</glyph>
<glyph name="dSignShortE" format="2">
  <unicode hex="0946"/>
  <outline>
    <contour>
      <point x="-27" y="608" type="line"/>
      <point x="-28" y="708"/>
      <point x="-64" y="761"/>
      <point x="-86" y="782" type="curve" smooth="yes"/>
      <point x="-160" y="852"/>
      <point x="-338" y="820"/>
      <point x="-409" y="854" type="curve" smooth="yes"/>
      <point x="-431" y="865"/>
      <point x="-446" y="883"/>
      <point x="-462" y="924" type="curve"/>
      <point x="-493" y="909" type="line"/>
      <point x="-481" y="863"/>
      <point x="-462" y="816"/>
      <point x="-439" y="790" type="curve" smooth="yes"/>
      <point x="-386" y="730"/>
      <point x="-195" y="764"/>
      <point x="-116" y="723" type="curve" smooth="yes"/>
      <point x="-86" y="707"/>
      <point x="-78" y="683"/>
      <point x="-78" y="663" type="curve" smooth="yes"/>
      <point x="-78" y="639"/>
      <point x="-88" y="621"/>
      <point x="-100" y="608" type="curve"/>
    </contour>
  </outline>
  <guideline angle="90" x="-83" y="0"/>
</glyph>
<glyph name="dVocalicLl" format="2">
  <advance width="682"/>
  <unicode hex="0961"/>
  <outline>
    <contour>
      <point x="483" y="-7" type="line"/>
      <point x="452" y="3"/>
      <point x="442" y="21"/>
      <point x="442" y="39" type="curve" smooth="yes"/>
      <point x="442" y="121"/>
      <point x="627" y="152"/>
      <point x="627" y="285" type="curve" smooth="yes"/>
      <point x="627" y="369"/>
      <point x="574" y="442"/>
      <point x="491" y="442" type="curve" smooth="yes"/>
      <point x="414" y="442"/>
      <point x="314" y="343"/>
      <point x="265" y="261" type="curve"/>
      <point x="337" y="221" type="line"/>
      <point x="407" y="323"/>
      <point x="457" y="371"/>
      <point x="515" y="371" type="curve" smooth="yes"/>
      <point x="549" y="371"/>
      <point x="569" y="351"/>
      <point x="569" y="321" type="curve" smooth="yes"/>
      <point x="569" y="224"/>
      <point x="372" y="175"/>
      <point x="372" y="59" type="curve" smooth="yes"/>
      <point x="372" y="23"/>
      <point x="394" y="-14"/>
      <point x="448" y="-40" type="curve"/>
    </contour>
    <contour>
      <point x="555" y="-204" type="curve" smooth="yes"/>
      <point x="613" y="-204"/>
      <point x="669" y="-182"/>
      <point x="694" y="-164" type="curve"/>
      <point x="658" y="-102" type="line"/>
      <point x="612" y="-128"/>
      <point x="569" y="-140"/>
      <point x="530" y="-140" type="curve" smooth="yes"/>
      <point x="498" y="-140"/>
      <point x="476" y="-131"/>
      <point x="476" y="-108" type="curve" smooth="yes"/>
      <point x="476" y="-72"/>
      <point x="519" y="-39"/>
      <point x="629" y="-25" type="curve"/>
      <point x="630" y="-19" type="line"/>
      <point x="595" y="44" type="line"/>
      <point x="499" y="25"/>
      <point x="417" y="-7"/>
      <point x="417" y="-88" type="curve" smooth="yes"/>
      <point x="417" y="-160"/>
      <point x="484" y="-204"/>
    </contour>
    <contour>
      <point x="767" y="545" type="line"/>
      <point x="769" y="555" type="line"/>
      <point x="738" y="620" type="line"/>
      <point x="34" y="620" type="line"/>
      <point x="32" y="610" type="line"/>
      <point x="63" y="545" type="line"/>
    </contour>
    <contour>
      <point x="545" y="405" type="line"/>
      <point x="578" y="581" type="line"/>
      <point x="497" y="581" type="line"/>
      <point x="464" y="405" type="line"/>
    </contour>
    <contour>
      <point x="203" y="-10" type="line"/>
      <point x="249" y="22" type="line"/>
      <point x="164" y="113"/>
      <point x="128" y="158"/>
      <point x="128" y="234" type="curve" smooth="yes"/>
      <point x="128" y="328"/>
      <point x="185" y="380"/>
      <point x="247" y="380" type="curve" smooth="yes"/>
      <point x="287" y="380"/>
      <point x="313" y="358"/>
      <point x="328" y="332" type="curve"/>
      <point x="355" y="362" type="line"/>
      <point x="326" y="412"/>
      <point x="277" y="454"/>
      <point x="211" y="454" type="curve" smooth="yes"/>
      <point x="119" y="454"/>
      <point x="55" y="373"/>
      <point x="55" y="270" type="curve" smooth="yes"/>
      <point x="55" y="173"/>
      <point x="112" y="94"/>
      <point x="193" y="-10" type="curve"/>
    </contour>
  </outline>
</glyph>
<glyph name="dSignVocalicL" format="2">
  <unicode hex="0962"/>
  <outline>
    <contour>
      <point x="-179" y="-411" type="curve" smooth="yes"/>
      <point x="-136" y="-411"/>
      <point x="-90" y="-383"/>
      <point x="-64" y="-349" type="curve"/>
      <point x="-106" y="-295" type="line"/>
      <point x="-147" y="-340"/>
      <point x="-176" y="-357"/>
      <point x="-204" y="-357" type="curve" smooth="yes"/>
      <point x="-218" y="-357"/>
      <point x="-229" y="-352"/>
      <point x="-229" y="-335" type="curve" smooth="yes"/>
      <point x="-229" y="-277"/>
      <point x="-101" y="-247"/>
      <point x="-101" y="-146" type="curve" smooth="yes"/>
      <point x="-101" y="-75"/>
      <point x="-160" y="-29"/>
      <point x="-216" y="-29" type="curve" smooth="yes"/>
      <point x="-294" y="-29"/>
      <point x="-356" y="-111"/>
      <point x="-397" y="-181" type="curve"/>
      <point x="-335" y="-215" type="line"/>
      <point x="-280" y="-129"/>
      <point x="-233" y="-89"/>
      <point x="-188" y="-89" type="curve" smooth="yes"/>
      <point x="-166" y="-89"/>
      <point x="-154" y="-99"/>
      <point x="-154" y="-120" type="curve" smooth="yes"/>
      <point x="-154" y="-192"/>
      <point x="-284" y="-221"/>
      <point x="-284" y="-305" type="curve" smooth="yes"/>
      <point x="-284" y="-359"/>
      <point x="-237" y="-411"/>
    </contour>
    <contour>
      <point x="-429" y="-366" type="line"/>
      <point x="-390" y="-338" type="line"/>
      <point x="-460" y="-276"/>
      <point x="-480" y="-231"/>
      <point x="-480" y="-187" type="curve" smooth="yes"/>
      <point x="-480" y="-127"/>
      <point x="-439" y="-85"/>
      <point x="-386" y="-85" type="curve" smooth="yes"/>
      <point x="-363" y="-85"/>
      <point x="-341" y="-93"/>
      <point x="-330" y="-106" type="curve"/>
      <point x="-302" y="-85" type="line"/>
      <point x="-325" y="-55"/>
      <point x="-361" y="-23"/>
      <point x="-411" y="-23" type="curve" smooth="yes"/>
      <point x="-489" y="-23"/>
      <point x="-542" y="-86"/>
      <point x="-542" y="-154" type="curve" smooth="yes"/>
      <point x="-542" y="-233"/>
      <point x="-498" y="-291"/>
      <point x="-436" y="-366" type="curve"/>
    </contour>
  </outline>
</glyph>
<glyph name="dZero" format="2">
  <advance width="534"/>
  <unicode hex="0966"/>
  <outline>
    <contour>
      <point x="282" y="501" type="curve" smooth="yes"/>
      <point x="159" y="501"/>
      <point x="59" y="406"/>
      <point x="59" y="282" type="curve" smooth="yes"/>
      <point x="59" y="168"/>
      <point x="143" y="79"/>
      <point x="263" y="79" type="curve" smooth="yes"/>
      <point x="383" y="79"/>
      <point x="490" y="168"/>
      <point x="490" y="292" type="curve" smooth="yes"/>
      <point x="490" y="399"/>
      <point x="410" y="501"/>
    </contour>
    <contour>
      <point x="327" y="430" type="curve" smooth="yes"/>
      <point x="393" y="430"/>
      <point x="422" y="387"/>
      <point x="422" y="336" type="curve" smooth="yes"/>
      <point x="422" y="240"/>
      <point x="318" y="150"/>
      <point x="227" y="150" type="curve" smooth="yes"/>
      <point x="154" y="150"/>
      <point x="123" y="191"/>
      <point x="123" y="241" type="curve" smooth="yes"/>
      <point x="123" y="332"/>
      <point x="227" y="430"/>
    </contour>
  </outline>
</glyph>
<glyph name="dNine" format="2">
  <advance width="495"/>
  <unicode hex="096F"/>
  <outline>
    <contour>
      <point x="342" y="-137" type="line"/>
      <point x="389" y="-116"/>
      <point x="417" y="-82"/>
      <point x="417" y="-47" type="curve" smooth="yes"/>
      <point x="417" y="6"/>
      <point x="367" y="71"/>
      <point x="248" y="226" type="curve" smooth="yes"/>
      <point x="178" y="317"/>
      <point x="162" y="342"/>
      <point x="162" y="391" type="curve" smooth="yes"/>
      <point x="162" y="461"/>
      <point x="223" y="530"/>
      <point x="300" y="530" type="curve" smooth="yes"/>
      <point x="339" y="530"/>
      <point x="370" y="507"/>
      <point x="370" y="464" type="curve" smooth="yes"/>
      <point x="370" y="385"/>
      <point x="275" y="331"/>
      <point x="164" y="318" type="curve"/>
      <point x="217" y="245" type="line"/>
      <point x="324" y="258"/>
      <point x="442" y="322"/>
      <point x="442" y="431" type="curve" smooth="yes"/>
      <point x="442" y="518"/>
      <point x="357" y="598"/>
      <point x="263" y="598" type="curve" smooth="yes"/>
      <point x="171" y="598"/>
      <point x="82" y="533"/>
      <point x="82" y="425" type="curve" smooth="yes"/>
      <point x="82" y="359"/>
      <point x="114" y="314"/>
      <point x="205" y="199" type="curve" smooth="yes"/>
      <point x="293" y="89"/>
      <point x="331" y="36"/>
      <point x="331" y="-8" type="curve" smooth="yes"/>
      <point x="331" y="-37"/>
      <point x="320" y="-51"/>
      <point x="291" y="-67" type="curve"/>
    </contour>
  </outline>
</glyph>
<glyph name="dAbbreviation" format="2">
  <advance width="411"/>
  <unicode hex="0970"/>
  <outline>
    <contour>
      <point x="217" y="445" type="curve" smooth="yes"/>
      <point x="148" y="445"/>
      <point x="67" y="395"/>
      <point x="67" y="302" type="curve" smooth="yes"/>
      <point x="67" y="222"/>
      <point x="129" y="157"/>
      <point x="209" y="157" type="curve" smooth="yes"/>
      <point x="289" y="157"/>
      <point x="363" y="207"/>
      <point x="363" y="295" type="curve" smooth="yes"/>
      <point x="363" y="374"/>
      <point x="297" y="445"/>
    </contour>
    <contour>
      <point x="248" y="390" type="curve" smooth="yes"/>
      <point x="284" y="390"/>
      <point x="309" y="369"/>
      <point x="309" y="330" type="curve" smooth="yes"/>
      <point x="309" y="269"/>
      <point x="246" y="212"/>
      <point x="184" y="212" type="curve" smooth="yes"/>
      <point x="139" y="212"/>
      <point x="118" y="241"/>
      <point x="118" y="270" type="curve" smooth="yes"/>
      <point x="118" y="333"/>
      <point x="187" y="390"/>
    </contour>
  </outline>
</glyph>
<glyph name="flowerpunc" format="2">
  <advance width="590"/>
  <unicode hex="2055"/>
  <outline>
    <contour>
      <point x="131" y="376" type="curve" smooth="yes"/>
      <point x="158" y="350"/>
      <point x="231" y="323"/>
      <point x="280" y="277" type="curve"/>
      <point x="289" y="286" type="line"/>
      <point x="224" y="355"/>
      <point x="209" y="450"/>
      <point x="158" y="450" type="curve" smooth="yes"/>
      <point x="134" y="450"/>
      <point x="116" y="429"/>
      <point x="116" y="408" type="curve" smooth="yes"/>
      <point x="116" y="397"/>
      <point x="121" y="385"/>
    </contour>
    <contour>
      <point x="459" y="166" type="curve" smooth="yes"/>
      <point x="432" y="194"/>
      <point x="359" y="219"/>
      <point x="310" y="265" type="curve"/>
      <point x="301" y="256" type="line"/>
      <point x="366" y="187"/>
      <point x="381" y="92"/>
      <point x="432" y="92" type="curve" smooth="yes"/>
      <point x="456" y="92"/>
      <point x="474" y="113"/>
      <point x="474" y="134" type="curve" smooth="yes"/>
      <point x="474" y="145"/>
      <point x="468" y="157"/>
    </contour>
    <contour>
      <point x="190" y="107" type="curve" smooth="yes"/>
      <point x="216" y="134"/>
      <point x="243" y="207"/>
      <point x="289" y="256" type="curve"/>
      <point x="280" y="265" type="line"/>
      <point x="212" y="200"/>
      <point x="116" y="185"/>
      <point x="116" y="134" type="curve" smooth="yes"/>
      <point x="116" y="113"/>
      <point x="134" y="92"/>
      <point x="158" y="92" type="curve" smooth="yes"/>
      <point x="169" y="92"/>
      <point x="181" y="97"/>
    </contour>
    <contour>
      <point x="400" y="435" type="curve" smooth="yes"/>
      <point x="372" y="407"/>
      <point x="347" y="335"/>
      <point x="301" y="286" type="curve"/>
      <point x="310" y="277" type="line"/>
      <point x="378" y="341"/>
      <point x="474" y="358"/>
      <point x="474" y="408" type="curve" smooth="yes"/>
      <point x="474" y="429"/>
      <point x="456" y="450"/>
      <point x="433" y="450" type="curve" smooth="yes"/>
      <point x="421" y="450"/>
      <point x="409" y="444"/>
    </contour>
    <contour>
      <point x="253" y="461" type="curve" smooth="yes"/>
      <point x="253" y="424"/>
      <point x="286" y="353"/>
      <point x="289" y="286" type="curve"/>
      <point x="301" y="286" type="line"/>
      <point x="304" y="353"/>
      <point x="337" y="424"/>
      <point x="337" y="461" type="curve" smooth="yes"/>
      <point x="337" y="486"/>
      <point x="321" y="506"/>
      <point x="295" y="506" type="curve" smooth="yes"/>
      <point x="269" y="506"/>
      <point x="253" y="486"/>
    </contour>
    <contour>
      <point x="337" y="81" type="curve" smooth="yes"/>
      <point x="337" y="118"/>
      <point x="304" y="189"/>
      <point x="301" y="256" type="curve"/>
      <point x="289" y="256" type="line"/>
      <point x="286" y="189"/>
      <point x="253" y="118"/>
      <point x="253" y="81" type="curve" smooth="yes"/>
      <point x="253" y="56"/>
      <point x="269" y="36"/>
      <point x="295" y="36" type="curve" smooth="yes"/>
      <point x="321" y="36"/>
      <point x="337" y="56"/>
    </contour>
    <contour>
      <point x="250" y="271" type="curve" smooth="yes"/>
      <point x="250" y="246"/>
      <point x="270" y="226"/>
      <point x="295" y="226" type="curve" smooth="yes"/>
      <point x="320" y="226"/>
      <point x="340" y="246"/>
      <point x="340" y="271" type="curve" smooth="yes"/>
      <point x="340" y="296"/>
      <point x="320" y="316"/>
      <point x="295" y="316" type="curve" smooth="yes"/>
      <point x="270" y="316"/>
      <point x="250" y="296"/>
    </contour>
    <contour>
      <point x="105" y="229" type="curve" smooth="yes"/>
      <point x="142" y="229"/>
      <point x="213" y="262"/>
      <point x="280" y="265" type="curve"/>
      <point x="280" y="277" type="line"/>
      <point x="213" y="280"/>
      <point x="142" y="313"/>
      <point x="105" y="313" type="curve" smooth="yes"/>
      <point x="80" y="313"/>
      <point x="60" y="297"/>
      <point x="60" y="271" type="curve" smooth="yes"/>
      <point x="60" y="245"/>
      <point x="80" y="229"/>
    </contour>
    <contour>
      <point x="485" y="313" type="curve" smooth="yes"/>
      <point x="448" y="313"/>
      <point x="377" y="280"/>
      <point x="310" y="277" type="curve"/>
      <point x="310" y="265" type="line"/>
      <point x="377" y="262"/>
      <point x="448" y="229"/>
      <point x="485" y="229" type="curve" smooth="yes"/>
      <point x="510" y="229"/>
      <point x="530" y="245"/>
      <point x="530" y="271" type="curve" smooth="yes"/>
      <point x="530" y="297"/>
      <point x="510" y="313"/>
    </contour>
  </outline>
  <guideline angle="90" x="305" y="0"/>
</glyph>
<glyph name="dBhRa" format="2">
  <advance width="726"/>
  <outline>
    <contour>
      <point x="565" y="200" type="line"/>
      <point x="585" y="306" type="line"/>
      <point x="247" y="54" type="line"/>
      <point x="303" y="-1" type="line"/>
    </contour>
    <contour>
      <point x="588" y="-10" type="line"/>
      <point x="701" y="581" type="line"/>
      <point x="617" y="581" type="line"/>
      <point x="510" y="52" type="line"/>
      <point x="578" y="-10" type="line"/>
    </contour>
    <contour>
      <point x="811" y="545" type="line"/>
      <point x="813" y="555" type="line"/>
      <point x="781" y="620" type="line"/>
      <point x="430" y="620" type="line"/>
      <point x="428" y="610" type="line"/>
      <point x="460" y="545" type="line"/>
    </contour>
    <contour>
      <point x="282" y="154" type="curve" smooth="yes"/>
      <point x="308" y="154"/>
      <point x="315" y="178"/>
      <point x="341" y="266" type="curve" smooth="yes"/>
      <point x="373" y="373"/>
      <point x="385" y="418"/>
      <point x="385" y="450" type="curve" smooth="yes"/>
      <point x="385" y="534"/>
      <point x="320" y="633"/>
      <point x="225" y="633" type="curve" smooth="yes"/>
      <point x="167" y="633"/>
      <point x="106" y="601"/>
      <point x="106" y="526" type="curve" smooth="yes"/>
      <point x="106" y="474"/>
      <point x="138" y="422"/>
      <point x="208" y="422" type="curve" smooth="yes"/>
      <point x="215" y="422"/>
      <point x="224" y="423"/>
      <point x="228" y="424" type="curve"/>
      <point x="230" y="435" type="line"/>
      <point x="203" y="449"/>
      <point x="179" y="471"/>
      <point x="179" y="501" type="curve" smooth="yes"/>
      <point x="179" y="539"/>
      <point x="213" y="563"/>
      <point x="252" y="563" type="curve" smooth="yes"/>
      <point x="289" y="563"/>
      <point x="312" y="547"/>
      <point x="312" y="492" type="curve" smooth="yes"/>
      <point x="312" y="433"/>
      <point x="287" y="370"/>
      <point x="249" y="249" type="curve"/>
      <point x="597" y="249" type="line"/>
      <point x="611" y="323" type="line"/>
      <point x="201" y="323" type="line" smooth="yes"/>
      <point x="180" y="323"/>
      <point x="171" y="311"/>
      <point x="171" y="295" type="curve" smooth="yes"/>
      <point x="171" y="253"/>
      <point x="240" y="154"/>
    </contour>
  </outline>
</glyph>
<glyph name="dCChVa" format="2">
  <advance width="1071"/>
  <outline>
    <component base="dChVa" xOffset="326"/>
    <contour>
      <point x="352" y="125" type="curve" smooth="yes"/>
      <point x="409" y="125"/>
      <point x="457" y="140"/>
      <point x="519" y="182" type="curve"/>
      <point x="490" y="255" type="line"/>
      <point x="406" y="202"/>
      <point x="344" y="189"/>
      <point x="315" y="189" type="curve" smooth="yes"/>
      <point x="258" y="189"/>
      <point x="224" y="215"/>
      <point x="224" y="265" type="curve" smooth="yes"/>
      <point x="224" y="354"/>
      <point x="324" y="373"/>
      <point x="440" y="373" type="curve"/>
      <point x="447" y="408" type="line"/>
      <point x="203" y="382" type="line"/>
      <point x="172" y="360"/>
      <point x="157" y="327"/>
      <point x="157" y="289" type="curve" smooth="yes"/>
      <point x="157" y="204"/>
      <point x="237" y="125"/>
    </contour>
    <contour>
      <point x="206" y="370" type="line"/>
      <point x="402" y="388" type="line"/>
      <point x="440" y="373" type="line"/>
      <point x="488" y="373" type="line"/>
      <point x="459" y="446" type="line"/>
      <point x="65" y="446" type="line"/>
      <point x="63" y="436" type="line"/>
      <point x="95" y="370" type="line"/>
    </contour>
    <contour>
      <point x="593" y="545" type="line"/>
      <point x="595" y="555" type="line"/>
      <point x="564" y="620" type="line"/>
      <point x="34" y="620" type="line"/>
      <point x="32" y="610" type="line"/>
      <point x="63" y="545" type="line"/>
    </contour>
  </outline>
</glyph>
<glyph name="dDBRa" format="2">
  <advance width="522"/>
  <outline>
    <contour>
      <point x="457" y="-180" type="line"/>
      <point x="513" y="-148" type="line"/>
      <point x="351" y="173" type="line"/>
      <point x="329" y="142"/>
      <point x="281" y="133"/>
      <point x="249" y="133" type="curve" smooth="yes"/>
      <point x="185" y="133"/>
      <point x="131" y="173"/>
      <point x="131" y="252" type="curve" smooth="yes"/>
      <point x="131" y="339"/>
      <point x="198" y="379"/>
      <point x="286" y="379" type="curve" smooth="yes"/>
      <point x="435" y="379" type="line"/>
      <point x="449" y="387" type="line"/>
      <point x="459" y="439"/>
      <point x="472" y="513"/>
      <point x="484" y="579" type="curve"/>
      <point x="403" y="579" type="line"/>
      <point x="379" y="454" type="line"/>
      <point x="288" y="454" type="line" smooth="yes"/>
      <point x="144" y="454"/>
      <point x="64" y="418"/>
      <point x="64" y="294" type="curve" smooth="yes"/>
      <point x="64" y="177"/>
      <point x="146" y="68"/>
      <point x="301" y="68" type="curve" smooth="yes"/>
      <point x="410" y="68"/>
      <point x="455" y="142"/>
      <point x="455" y="171" type="curve" smooth="yes"/>
      <point x="455" y="215"/>
      <point x="384" y="257"/>
      <point x="344" y="257" type="curve" smooth="yes"/>
      <point x="319" y="257"/>
      <point x="307" y="244"/>
      <point x="307" y="214" type="curve" smooth="yes"/>
      <point x="307" y="190"/>
      <point x="321" y="130"/>
      <point x="336" y="94" type="curve" smooth="yes"/>
      <point x="448" y="-180" type="line"/>
    </contour>
    <contour>
      <point x="307" y="-106" type="line" smooth="yes"/>
      <point x="347" y="-72"/>
      <point x="370" y="-35"/>
      <point x="391" y="15" type="curve"/>
      <point x="366" y="25" type="line"/>
      <point x="155" y="-125" type="line"/>
      <point x="152" y="-147" type="line"/>
      <point x="47" y="-229" type="line"/>
      <point x="105" y="-278" type="line"/>
    </contour>
    <contour>
      <point x="391" y="9" type="line"/>
      <point x="344" y="95" type="line"/>
      <point x="317" y="-25"/>
      <point x="228" y="-87"/>
      <point x="154" y="-87" type="curve" smooth="yes"/>
      <point x="122" y="-87"/>
      <point x="92" y="-75"/>
      <point x="92" y="-40" type="curve" smooth="yes"/>
      <point x="92" y="23"/>
      <point x="179" y="76"/>
      <point x="253" y="72" type="curve"/>
      <point x="167" y="124" type="line"/>
      <point x="56" y="94"/>
      <point x="29" y="49"/>
      <point x="29" y="-5" type="curve" smooth="yes"/>
      <point x="29" y="-75"/>
      <point x="82" y="-147"/>
      <point x="192" y="-147" type="curve"/>
    </contour>
    <contour>
      <point x="268" y="-51" type="line"/>
      <point x="180" y="69" type="line"/>
      <point x="141" y="48" type="line"/>
      <point x="233" y="-76" type="line"/>
    </contour>
    <contour>
      <point x="607" y="545" type="line"/>
      <point x="608" y="555" type="line"/>
      <point x="577" y="620" type="line"/>
      <point x="33" y="620" type="line"/>
      <point x="31" y="610" type="line"/>
      <point x="63" y="545" type="line"/>
    </contour>
  </outline>
</glyph>
<glyph name="dDVa" format="2">
  <advance width="517"/>
  <outline>
    <contour>
      <point x="209" y="-131" type="curve" smooth="yes"/>
      <point x="275" y="-131"/>
      <point x="352" y="-98"/>
      <point x="397" y="9" type="curve"/>
      <point x="353" y="101" type="line"/>
      <point x="313" y="-29"/>
      <point x="229" y="-67"/>
      <point x="169" y="-67" type="curve" smooth="yes"/>
      <point x="143" y="-67"/>
      <point x="115" y="-57"/>
      <point x="115" y="-27" type="curve" smooth="yes"/>
      <point x="115" y="28"/>
      <point x="185" y="63"/>
      <point x="248" y="75" type="curve"/>
      <point x="168" y="124" type="line"/>
      <point x="89" y="92"/>
      <point x="51" y="61"/>
      <point x="51" y="2" type="curve" smooth="yes"/>
      <point x="51" y="-59"/>
      <point x="105" y="-131"/>
    </contour>
    <contour>
      <point x="602" y="545" type="line"/>
      <point x="604" y="555" type="line"/>
      <point x="573" y="620" type="line"/>
      <point x="34" y="620" type="line"/>
      <point x="32" y="610" type="line"/>
      <point x="63" y="545" type="line"/>
    </contour>
    <contour>
      <point x="453" y="-170" type="line"/>
      <point x="508" y="-139" type="line"/>
      <point x="356" y="169" type="line"/>
      <point x="328" y="141"/>
      <point x="281" y="133"/>
      <point x="249" y="133" type="curve" smooth="yes"/>
      <point x="185" y="133"/>
      <point x="131" y="168"/>
      <point x="131" y="247" type="curve" smooth="yes"/>
      <point x="131" y="334"/>
      <point x="198" y="379"/>
      <point x="286" y="379" type="curve" smooth="yes"/>
      <point x="436" y="379" type="line"/>
      <point x="450" y="387" type="line"/>
      <point x="460" y="439"/>
      <point x="477" y="534"/>
      <point x="485" y="581" type="curve"/>
      <point x="404" y="581" type="line"/>
      <point x="380" y="454" type="line"/>
      <point x="288" y="454" type="line" smooth="yes"/>
      <point x="144" y="454"/>
      <point x="64" y="413"/>
      <point x="64" y="289" type="curve" smooth="yes"/>
      <point x="64" y="172"/>
      <point x="146" y="66"/>
      <point x="302" y="66" type="curve" smooth="yes"/>
      <point x="418" y="66"/>
      <point x="458" y="140"/>
      <point x="458" y="169" type="curve" smooth="yes"/>
      <point x="458" y="213"/>
      <point x="384" y="257"/>
      <point x="344" y="257" type="curve" smooth="yes"/>
      <point x="319" y="257"/>
      <point x="308" y="245"/>
      <point x="308" y="215" type="curve" smooth="yes"/>
      <point x="308" y="191"/>
      <point x="319" y="142"/>
      <point x="339" y="93" type="curve" smooth="yes"/>
      <point x="445" y="-170" type="line"/>
    </contour>
  </outline>
</glyph>
<glyph name="dDdDda" format="2">
  <advance width="540"/>
  <outline>
    <contour>
      <point x="625" y="545" type="line"/>
      <point x="627" y="555" type="line"/>
      <point x="596" y="620" type="line"/>
      <point x="34" y="620" type="line"/>
      <point x="32" y="610" type="line"/>
      <point x="63" y="545" type="line"/>
    </contour>
    <contour>
      <point x="307" y="80" type="curve" smooth="yes"/>
      <point x="436" y="80"/>
      <point x="484" y="139"/>
      <point x="484" y="202" type="curve" smooth="yes"/>
      <point x="484" y="268"/>
      <point x="421" y="335"/>
      <point x="372" y="335" type="curve" smooth="yes"/>
      <point x="340" y="335"/>
      <point x="248" y="313"/>
      <point x="224" y="313" type="curve" smooth="yes"/>
      <point x="206" y="313"/>
      <point x="189" y="331"/>
      <point x="189" y="357" type="curve" smooth="yes"/>
      <point x="189" y="395"/>
      <point x="215" y="410"/>
      <point x="263" y="410" type="curve" smooth="yes"/>
      <point x="454" y="410" type="line"/>
      <point x="468" y="418" type="line"/>
      <point x="478" y="469"/>
      <point x="488" y="523"/>
      <point x="499" y="583" type="curve"/>
      <point x="419" y="583" type="line"/>
      <point x="399" y="482" type="line"/>
      <point x="252" y="482" type="line" smooth="yes"/>
      <point x="158" y="482"/>
      <point x="124" y="447"/>
      <point x="124" y="388" type="curve" smooth="yes"/>
      <point x="124" y="319"/>
      <point x="197" y="243"/>
      <point x="255" y="243" type="curve" smooth="yes"/>
      <point x="289" y="243"/>
      <point x="358" y="264"/>
      <point x="394" y="264" type="curve" smooth="yes"/>
      <point x="413" y="264"/>
      <point x="422" y="255"/>
      <point x="422" y="237" type="curve" smooth="yes"/>
      <point x="422" y="201"/>
      <point x="393" y="152"/>
      <point x="290" y="152" type="curve" smooth="yes"/>
      <point x="163" y="152"/>
      <point x="111" y="210"/>
      <point x="79" y="298" type="curve"/>
      <point x="40" y="279" type="line"/>
      <point x="78" y="161"/>
      <point x="169" y="80"/>
    </contour>
    <contour>
      <point x="227" y="-348" type="curve" smooth="yes"/>
      <point x="332" y="-348"/>
      <point x="392" y="-301"/>
      <point x="392" y="-233" type="curve" smooth="yes"/>
      <point x="392" y="-174"/>
      <point x="337" y="-105"/>
      <point x="289" y="-105" type="curve" smooth="yes"/>
      <point x="257" y="-105"/>
      <point x="164" y="-127"/>
      <point x="139" y="-127" type="curve" smooth="yes"/>
      <point x="123" y="-127"/>
      <point x="109" y="-113"/>
      <point x="109" y="-91" type="curve" smooth="yes"/>
      <point x="109" y="-55"/>
      <point x="134" y="-39"/>
      <point x="182" y="-39" type="curve" smooth="yes"/>
      <point x="366" y="-39" type="line"/>
      <point x="379" y="-31" type="line"/>
      <point x="388" y="13"/>
      <point x="396" y="55"/>
      <point x="411" y="137" type="curve"/>
      <point x="334" y="137" type="line"/>
      <point x="313" y="29" type="line"/>
      <point x="168" y="29" type="line" smooth="yes"/>
      <point x="86" y="29"/>
      <point x="45" y="-3"/>
      <point x="45" y="-60" type="curve" smooth="yes"/>
      <point x="45" y="-125"/>
      <point x="110" y="-195"/>
      <point x="163" y="-195" type="curve" smooth="yes"/>
      <point x="197" y="-195"/>
      <point x="268" y="-174"/>
      <point x="304" y="-174" type="curve" smooth="yes"/>
      <point x="322" y="-174"/>
      <point x="331" y="-182"/>
      <point x="331" y="-200" type="curve" smooth="yes"/>
      <point x="331" y="-232"/>
      <point x="308" y="-278"/>
      <point x="205" y="-278" type="curve" smooth="yes"/>
      <point x="92" y="-278"/>
      <point x="43" y="-222"/>
      <point x="8" y="-136" type="curve"/>
      <point x="-28" y="-153" type="line"/>
      <point x="14" y="-273"/>
      <point x="95" y="-348"/>
    </contour>
  </outline>
  <guideline angle="90" x="446" y="0"/>
</glyph>
<glyph name="dDdPa" format="2">
  <advance width="548"/>
  <outline>
    <contour>
      <point x="308" y="80" type="curve" smooth="yes"/>
      <point x="434" y="80"/>
      <point x="484" y="146"/>
      <point x="484" y="207" type="curve" smooth="yes"/>
      <point x="484" y="273"/>
      <point x="428" y="335"/>
      <point x="374" y="335" type="curve" smooth="yes"/>
      <point x="347" y="335"/>
      <point x="252" y="313"/>
      <point x="228" y="313" type="curve" smooth="yes"/>
      <point x="210" y="313"/>
      <point x="189" y="330"/>
      <point x="189" y="358" type="curve" smooth="yes"/>
      <point x="189" y="394"/>
      <point x="215" y="410"/>
      <point x="262" y="410" type="curve" smooth="yes"/>
      <point x="454" y="410" type="line"/>
      <point x="468" y="418" type="line"/>
      <point x="478" y="469"/>
      <point x="488" y="523"/>
      <point x="499" y="583" type="curve"/>
      <point x="419" y="583" type="line"/>
      <point x="399" y="482" type="line"/>
      <point x="255" y="482" type="line" smooth="yes"/>
      <point x="166" y="482"/>
      <point x="124" y="451"/>
      <point x="124" y="392" type="curve" smooth="yes"/>
      <point x="124" y="323"/>
      <point x="189" y="243"/>
      <point x="248" y="243" type="curve" smooth="yes"/>
      <point x="281" y="243"/>
      <point x="358" y="264"/>
      <point x="392" y="264" type="curve" smooth="yes"/>
      <point x="413" y="264"/>
      <point x="422" y="255"/>
      <point x="422" y="234" type="curve" smooth="yes"/>
      <point x="422" y="183"/>
      <point x="370" y="152"/>
      <point x="285" y="152" type="curve" smooth="yes"/>
      <point x="170" y="152"/>
      <point x="114" y="210"/>
      <point x="79" y="298" type="curve"/>
      <point x="43" y="280" type="line"/>
      <point x="85" y="156"/>
      <point x="177" y="80"/>
    </contour>
    <contour>
      <point x="196" y="-149" type="curve" smooth="yes"/>
      <point x="243" y="-149"/>
      <point x="269" y="-136"/>
      <point x="311" y="-112" type="curve"/>
      <point x="332" y="-9" type="line"/>
      <point x="271" y="-54"/>
      <point x="216" y="-90"/>
      <point x="179" y="-90" type="curve" smooth="yes"/>
      <point x="151" y="-90"/>
      <point x="129" y="-77"/>
      <point x="129" y="-36" type="curve" smooth="yes"/>
      <point x="129" y="-27"/>
      <point x="130" y="-17"/>
      <point x="132" y="-6" type="curve" smooth="yes"/>
      <point x="163" y="157" type="line"/>
      <point x="100" y="219" type="line"/>
      <point x="94" y="191"/>
      <point x="71" y="76"/>
      <point x="67" y="55" type="curve" smooth="yes"/>
      <point x="63" y="36"/>
      <point x="57" y="8"/>
      <point x="57" y="-5" type="curve" smooth="yes"/>
      <point x="57" y="-65"/>
      <point x="117" y="-149"/>
    </contour>
    <contour>
      <point x="334" y="-300" type="line"/>
      <point x="413" y="124" type="line"/>
      <point x="339" y="124" type="line"/>
      <point x="300" y="-78" type="line"/>
      <point x="295" y="-90" type="line"/>
      <point x="264" y="-245" type="line"/>
      <point x="325" y="-300" type="line"/>
    </contour>
    <contour>
      <point x="633" y="545" type="line"/>
      <point x="635" y="555" type="line"/>
      <point x="603" y="620" type="line"/>
      <point x="33" y="620" type="line"/>
      <point x="32" y="610" type="line"/>
      <point x="63" y="545" type="line"/>
    </contour>
  </outline>
  <guideline angle="0" x="0" y="-310"/>
  <guideline angle="33.9366" x="0" y="-124"/>
</glyph>
<glyph name="dDdhVa" format="2">
  <advance width="558"/>
  <outline>
    <contour>
      <point x="319" y="19" type="curve" smooth="yes"/>
      <point x="409" y="19"/>
      <point x="500" y="68"/>
      <point x="500" y="163" type="curve" smooth="yes"/>
      <point x="500" y="256"/>
      <point x="418" y="306"/>
      <point x="355" y="306" type="curve" smooth="yes"/>
      <point x="277" y="306"/>
      <point x="225" y="251"/>
      <point x="225" y="163" type="curve" smooth="yes"/>
      <point x="225" y="140"/>
      <point x="228" y="110"/>
      <point x="235" y="88" type="curve"/>
      <point x="275" y="79" type="line"/>
      <point x="273" y="91"/>
      <point x="272" y="102"/>
      <point x="272" y="110" type="curve" smooth="yes"/>
      <point x="272" y="177"/>
      <point x="315" y="239"/>
      <point x="389" y="239" type="curve" smooth="yes"/>
      <point x="423" y="239"/>
      <point x="448" y="220"/>
      <point x="448" y="190" type="curve" smooth="yes"/>
      <point x="448" y="146"/>
      <point x="391" y="92"/>
      <point x="300" y="92" type="curve" smooth="yes"/>
      <point x="200" y="92"/>
      <point x="124" y="139"/>
      <point x="124" y="231" type="curve" smooth="yes"/>
      <point x="124" y="327"/>
      <point x="191" y="378"/>
      <point x="290" y="378" type="curve" smooth="yes"/>
      <point x="466" y="378" type="line"/>
      <point x="479" y="386" type="line"/>
      <point x="490" y="438"/>
      <point x="508" y="538"/>
      <point x="517" y="591" type="curve"/>
      <point x="436" y="591" type="line"/>
      <point x="409" y="453" type="line"/>
      <point x="288" y="453" type="line" smooth="yes"/>
      <point x="144" y="453"/>
      <point x="58" y="408"/>
      <point x="58" y="281" type="curve" smooth="yes"/>
      <point x="58" y="136"/>
      <point x="181" y="19"/>
    </contour>
    <contour>
      <point x="355" y="-266" type="line"/>
      <point x="421" y="83" type="line"/>
      <point x="342" y="57" type="line"/>
      <point x="286" y="-212" type="line"/>
      <point x="346" y="-266" type="line"/>
    </contour>
    <contour>
      <point x="643" y="545" type="line"/>
      <point x="645" y="555" type="line"/>
      <point x="614" y="620" type="line"/>
      <point x="34" y="620" type="line"/>
      <point x="32" y="610" type="line"/>
      <point x="63" y="545" type="line"/>
    </contour>
    <contour>
      <point x="216" y="-178" type="curve" smooth="yes"/>
      <point x="251" y="-178"/>
      <point x="278" y="-168"/>
      <point x="318" y="-150" type="curve"/>
      <point x="335" y="-61" type="line"/>
      <point x="251" y="-111"/>
      <point x="216" y="-120"/>
      <point x="184" y="-120" type="curve" smooth="yes"/>
      <point x="149" y="-120"/>
      <point x="126" y="-105"/>
      <point x="126" y="-71" type="curve" smooth="yes"/>
      <point x="126" y="-12"/>
      <point x="192" y="24"/>
      <point x="259" y="27" type="curve"/>
      <point x="169" y="82" type="line"/>
      <point x="96" y="46"/>
      <point x="64" y="8"/>
      <point x="64" y="-47" type="curve" smooth="yes"/>
      <point x="64" y="-122"/>
      <point x="138" y="-178"/>
    </contour>
  </outline>
  <guideline angle="90" x="464" y="0"/>
</glyph>
<glyph name="dDh.half" format="2">
  <advance width="428"/>
  <outline>
    <contour>
      <point x="247" y="417" type="curve" smooth="yes"/>
      <point x="209" y="417"/>
      <point x="172" y="439"/>
      <point x="172" y="486" type="curve" smooth="yes"/>
      <point x="172" y="531"/>
      <point x="202" y="564"/>
      <point x="254" y="564" type="curve" smooth="yes"/>
      <point x="297" y="564"/>
      <point x="327" y="545"/>
      <point x="334" y="491" type="curve"/>
      <point x="343" y="491" type="line"/>
      <point x="348" y="504"/>
      <point x="352" y="518"/>
      <point x="352" y="537" type="curve" smooth="yes"/>
      <point x="352" y="583"/>
      <point x="317" y="633"/>
      <point x="239" y="633" type="curve" smooth="yes"/>
      <point x="164" y="633"/>
      <point x="105" y="591"/>
      <point x="105" y="511" type="curve" smooth="yes"/>
      <point x="105" y="452"/>
      <point x="146" y="398"/>
      <point x="204" y="372" type="curve"/>
      <point x="201" y="395" type="line"/>
      <point x="152" y="365"/>
      <point x="135" y="329"/>
      <point x="135" y="289" type="curve" smooth="yes"/>
      <point x="135" y="217"/>
      <point x="195" y="119"/>
      <point x="333" y="119" type="curve" smooth="yes"/>
      <point x="400" y="119"/>
      <point x="473" y="145"/>
      <point x="550" y="213" type="curve"/>
      <point x="525" y="291" type="line"/>
      <point x="423" y="207"/>
      <point x="348" y="184"/>
      <point x="296" y="184" type="curve" smooth="yes"/>
      <point x="236" y="184"/>
      <point x="200" y="210"/>
      <point x="200" y="252" type="curve" smooth="yes"/>
      <point x="200" y="301"/>
      <point x="242" y="347"/>
      <point x="411" y="363" type="curve"/>
      <point x="389" y="441" type="line"/>
      <point x="328" y="435"/>
      <point x="285" y="417"/>
    </contour>
    <contour>
      <point x="585" y="545" type="line"/>
      <point x="587" y="555" type="line"/>
      <point x="556" y="620" type="line"/>
      <point x="421" y="620" type="line"/>
      <point x="419" y="610" type="line"/>
      <point x="450" y="545" type="line"/>
    </contour>
  </outline>
</glyph>
<glyph name="dFour.sups" format="2">
  <advance width="450"/>
  <outline>
    <contour>
      <point x="288" y="314" type="curve" smooth="yes"/>
      <point x="340" y="314"/>
      <point x="402" y="343"/>
      <point x="402" y="412" type="curve" smooth="yes"/>
      <point x="402" y="464"/>
      <point x="369" y="510"/>
      <point x="317" y="568" type="curve" smooth="yes"/>
      <point x="276" y="614"/>
      <point x="228" y="658"/>
      <point x="178" y="711" type="curve"/>
      <point x="132" y="674" type="line"/>
      <point x="190" y="624"/>
      <point x="245" y="579"/>
      <point x="290" y="529" type="curve" smooth="yes"/>
      <point x="321" y="495"/>
      <point x="346" y="464"/>
      <point x="346" y="433" type="curve" smooth="yes"/>
      <point x="346" y="387"/>
      <point x="302" y="360"/>
      <point x="268" y="360" type="curve" smooth="yes"/>
      <point x="233" y="360"/>
      <point x="223" y="382"/>
      <point x="223" y="400" type="curve" smooth="yes"/>
      <point x="223" y="425"/>
      <point x="244" y="461"/>
      <point x="312" y="510" type="curve" smooth="yes"/>
      <point x="334" y="526"/>
      <point x="443" y="605"/>
      <point x="509" y="652" type="curve"/>
      <point x="486" y="717" type="line"/>
      <point x="480" y="717" type="line"/>
      <point x="451" y="696"/>
      <point x="298" y="590"/>
      <point x="278" y="574" type="curve" smooth="yes"/>
      <point x="186" y="501"/>
      <point x="170" y="467"/>
      <point x="170" y="424" type="curve" smooth="yes"/>
      <point x="170" y="370"/>
      <point x="214" y="314"/>
    </contour>
  </outline>
  <guideline angle="316.593" x="0" y="758"/>
  <guideline angle="44.9971" x="0" y="349"/>
</glyph>
<glyph name="dHNa" format="2">
  <advance width="591"/>
  <outline>
    <contour>
      <point x="323" y="300" type="curve" smooth="yes"/>
      <point x="180" y="300"/>
      <point x="44" y="206"/>
      <point x="44" y="74" type="curve" smooth="yes"/>
      <point x="44" y="-33"/>
      <point x="123" y="-135"/>
      <point x="295" y="-184" type="curve"/>
      <point x="313" y="-145" type="line"/>
      <point x="167" y="-102"/>
      <point x="122" y="-14"/>
      <point x="122" y="52" type="curve" smooth="yes"/>
      <point x="122" y="167"/>
      <point x="226" y="244"/>
      <point x="347" y="244" type="curve" smooth="yes"/>
      <point x="420" y="244"/>
      <point x="464" y="217"/>
      <point x="464" y="141" type="curve" smooth="yes"/>
      <point x="464" y="123"/>
      <point x="449" y="46"/>
      <point x="423" y="-61" type="curve"/>
      <point x="484" y="-117" type="line"/>
      <point x="491" y="-117" type="line"/>
      <point x="527" y="75" type="line" smooth="yes"/>
      <point x="530" y="90"/>
      <point x="531" y="104"/>
      <point x="531" y="118" type="curve" smooth="yes"/>
      <point x="531" y="229"/>
      <point x="444" y="300"/>
    </contour>
    <contour>
      <point x="676" y="545" type="line"/>
      <point x="678" y="555" type="line"/>
      <point x="647" y="620" type="line"/>
      <point x="34" y="620" type="line"/>
      <point x="32" y="610" type="line"/>
      <point x="63" y="545" type="line"/>
    </contour>
    <contour>
      <point x="459" y="239" type="line"/>
      <point x="274" y="107" type="line" smooth="yes"/>
      <point x="218" y="67"/>
      <point x="205" y="58"/>
      <point x="205" y="38" type="curve" smooth="yes"/>
      <point x="205" y="1"/>
      <point x="273" y="-30"/>
      <point x="315" y="-30" type="curve" smooth="yes"/>
      <point x="342" y="-30"/>
      <point x="345" y="-12"/>
      <point x="345" y="3" type="curve" smooth="yes"/>
      <point x="345" y="14"/>
      <point x="343" y="28"/>
      <point x="333" y="59" type="curve"/>
      <point x="494" y="177" type="line"/>
    </contour>
    <contour>
      <point x="157" y="234" type="line"/>
      <point x="144" y="248"/>
      <point x="136" y="273"/>
      <point x="136" y="296" type="curve" smooth="yes"/>
      <point x="136" y="357"/>
      <point x="186" y="385"/>
      <point x="275" y="385" type="curve" smooth="yes"/>
      <point x="465" y="385" type="line"/>
      <point x="479" y="393" type="line"/>
      <point x="489" y="445"/>
      <point x="504" y="527"/>
      <point x="514" y="581" type="curve"/>
      <point x="433" y="581" type="line"/>
      <point x="409" y="460" type="line"/>
      <point x="266" y="460" type="line" smooth="yes"/>
      <point x="125" y="460"/>
      <point x="68" y="409"/>
      <point x="68" y="325" type="curve" smooth="yes"/>
      <point x="68" y="281"/>
      <point x="89" y="229"/>
      <point x="117" y="200" type="curve"/>
    </contour>
  </outline>
</glyph>
<glyph name="dHa_dSignUu" format="2">
  <advance width="532"/>
  <outline>
    <contour>
      <point x="170" y="216" type="line"/>
      <point x="143" y="237"/>
      <point x="131" y="267"/>
      <point x="131" y="296" type="curve" smooth="yes"/>
      <point x="131" y="355"/>
      <point x="184" y="385"/>
      <point x="263" y="385" type="curve" smooth="yes"/>
      <point x="461" y="385" type="line"/>
      <point x="474" y="393" type="line"/>
      <point x="483" y="440"/>
      <point x="493" y="495"/>
      <point x="511" y="591" type="curve"/>
      <point x="430" y="591" type="line"/>
      <point x="404" y="460" type="line"/>
      <point x="258" y="460" type="line" smooth="yes"/>
      <point x="121" y="460"/>
      <point x="64" y="411"/>
      <point x="64" y="328" type="curve" smooth="yes"/>
      <point x="64" y="278"/>
      <point x="95" y="212"/>
      <point x="136" y="183" type="curve"/>
    </contour>
    <contour>
      <point x="408" y="-277" type="line"/>
      <point x="450" y="-238" type="line"/>
      <point x="401" y="-161"/>
      <point x="285" y="-20"/>
      <point x="161" y="-20" type="curve" smooth="yes"/>
      <point x="81" y="-20"/>
      <point x="31" y="-70"/>
      <point x="31" y="-140" type="curve" smooth="yes"/>
      <point x="31" y="-209"/>
      <point x="79" y="-271"/>
      <point x="163" y="-271" type="curve" smooth="yes"/>
      <point x="195" y="-271"/>
      <point x="239" y="-258"/>
      <point x="265" y="-232" type="curve"/>
      <point x="226" y="-164" type="line"/>
      <point x="208" y="-182"/>
      <point x="171" y="-209"/>
      <point x="133" y="-209" type="curve" smooth="yes"/>
      <point x="103" y="-209"/>
      <point x="87" y="-190"/>
      <point x="87" y="-163" type="curve" smooth="yes"/>
      <point x="87" y="-123"/>
      <point x="123" y="-88"/>
      <point x="182" y="-88" type="curve" smooth="yes"/>
      <point x="298" y="-88"/>
      <point x="373" y="-223"/>
      <point x="401" y="-277" type="curve"/>
    </contour>
    <contour>
      <point x="252" y="-44" type="line"/>
      <point x="176" y="-10"/>
      <point x="147" y="38"/>
      <point x="147" y="87" type="curve" smooth="yes"/>
      <point x="147" y="149"/>
      <point x="226" y="243"/>
      <point x="337" y="243" type="curve" smooth="yes"/>
      <point x="369" y="243"/>
      <point x="411" y="236"/>
      <point x="411" y="195" type="curve" smooth="yes"/>
      <point x="411" y="148"/>
      <point x="359" y="109"/>
      <point x="308" y="89" type="curve"/>
      <point x="343" y="18" type="line"/>
      <point x="429" y="51"/>
      <point x="474" y="96"/>
      <point x="474" y="165" type="curve" smooth="yes"/>
      <point x="474" y="219"/>
      <point x="429" y="301"/>
      <point x="315" y="301" type="curve" smooth="yes"/>
      <point x="183" y="301"/>
      <point x="68" y="206"/>
      <point x="68" y="108" type="curve" smooth="yes"/>
      <point x="68" y="61"/>
      <point x="85" y="18"/>
      <point x="130" y="-22" type="curve"/>
      <point x="130" y="-38" type="line"/>
      <point x="120" y="-71" type="line"/>
    </contour>
    <contour>
      <point x="617" y="545" type="line"/>
      <point x="619" y="555" type="line"/>
      <point x="587" y="620" type="line"/>
      <point x="33" y="620" type="line"/>
      <point x="32" y="610" type="line"/>
      <point x="63" y="545" type="line"/>
    </contour>
  </outline>
</glyph>
<glyph name="dJhRa" format="2">
  <advance width="840"/>
  <outline>
    <contour>
      <point x="225" y="19" type="curve" smooth="yes"/>
      <point x="343" y="19"/>
      <point x="458" y="79"/>
      <point x="458" y="180" type="curve" smooth="yes"/>
      <point x="458" y="234"/>
      <point x="411" y="319"/>
      <point x="355" y="319" type="curve" smooth="yes"/>
      <point x="319" y="319"/>
      <point x="215" y="291"/>
      <point x="177" y="291" type="curve" smooth="yes"/>
      <point x="145" y="291"/>
      <point x="132" y="314"/>
      <point x="132" y="337" type="curve" smooth="yes"/>
      <point x="132" y="372"/>
      <point x="158" y="395"/>
      <point x="242" y="395" type="curve" smooth="yes"/>
      <point x="450" y="395" type="line"/>
      <point x="464" y="403" type="line"/>
      <point x="473" y="452"/>
      <point x="488" y="535"/>
      <point x="496" y="580" type="curve"/>
      <point x="417" y="580" type="line"/>
      <point x="396" y="469" type="line"/>
      <point x="221" y="469" type="line" smooth="yes"/>
      <point x="123" y="469"/>
      <point x="71" y="443"/>
      <point x="71" y="368" type="curve" smooth="yes"/>
      <point x="71" y="298"/>
      <point x="125" y="220"/>
      <point x="200" y="220" type="curve" smooth="yes"/>
      <point x="246" y="220"/>
      <point x="329" y="247"/>
      <point x="365" y="247" type="curve" smooth="yes"/>
      <point x="384" y="247"/>
      <point x="399" y="241"/>
      <point x="399" y="216" type="curve" smooth="yes"/>
      <point x="399" y="140"/>
      <point x="303" y="92"/>
      <point x="210" y="91" type="curve"/>
      <point x="172" y="148"/>
      <point x="137" y="173"/>
      <point x="111" y="173" type="curve" smooth="yes"/>
      <point x="81" y="173"/>
      <point x="63" y="150"/>
      <point x="63" y="123" type="curve" smooth="yes"/>
      <point x="63" y="51"/>
      <point x="150" y="19"/>
    </contour>
    <contour>
      <point x="258" y="-155" type="line"/>
      <point x="313" y="-124" type="line"/>
      <point x="221" y="52" type="line"/>
      <point x="171" y="53" type="line"/>
      <point x="249" y="-155" type="line"/>
    </contour>
    <contour>
      <point x="642" y="146" type="line"/>
      <point x="659" y="143" type="line"/>
      <point x="680" y="273" type="line"/>
      <point x="441" y="48" type="line"/>
      <point x="504" y="5" type="line"/>
    </contour>
    <contour>
      <point x="695" y="335" type="line"/>
      <point x="636" y="283"/>
      <point x="570" y="269"/>
      <point x="514" y="269" type="curve" smooth="yes"/>
      <point x="471" y="269"/>
      <point x="427" y="277"/>
      <point x="397" y="302" type="curve"/>
      <point x="433" y="225" type="line"/>
      <point x="448" y="238" type="line"/>
      <point x="482" y="222"/>
      <point x="520" y="219"/>
      <point x="556" y="219" type="curve" smooth="yes"/>
      <point x="572" y="219"/>
      <point x="604" y="223"/>
      <point x="631" y="231" type="curve"/>
      <point x="636" y="215" type="line"/>
      <point x="716" y="214" type="line"/>
    </contour>
    <contour>
      <point x="702" y="-10" type="line"/>
      <point x="815" y="580" type="line"/>
      <point x="731" y="580" type="line"/>
      <point x="625" y="52" type="line"/>
      <point x="692" y="-10" type="line"/>
    </contour>
    <contour>
      <point x="925" y="545" type="line"/>
      <point x="927" y="555" type="line"/>
      <point x="896" y="620" type="line"/>
      <point x="34" y="620" type="line"/>
      <point x="32" y="610" type="line"/>
      <point x="63" y="545" type="line"/>
    </contour>
  </outline>
</glyph>
<glyph name="dKKhYa" format="2">
  <advance width="1676"/>
  <outline>
    <component base="dKh.half" xOffset="526"/>
    <component base="dYa" xOffset="1094"/>
    <contour>
      <point x="208" y="138" type="curve" smooth="yes"/>
      <point x="274" y="138"/>
      <point x="334" y="177"/>
      <point x="394" y="217" type="curve" smooth="yes"/>
      <point x="442" y="249"/>
      <point x="536" y="324"/>
      <point x="595" y="324" type="curve"/>
      <point x="597" y="324"/>
      <point x="600" y="324"/>
      <point x="604" y="323" type="curve"/>
      <point x="649" y="358" type="line"/>
      <point x="632" y="389"/>
      <point x="615" y="401"/>
      <point x="587" y="401" type="curve" smooth="yes"/>
      <point x="538" y="401"/>
      <point x="480" y="365"/>
      <point x="409" y="318" type="curve" smooth="yes"/>
      <point x="300" y="246"/>
      <point x="243" y="202"/>
      <point x="187" y="202" type="curve" smooth="yes"/>
      <point x="144" y="202"/>
      <point x="120" y="227"/>
      <point x="120" y="272" type="curve" smooth="yes"/>
      <point x="120" y="341"/>
      <point x="178" y="378"/>
      <point x="239" y="378" type="curve" smooth="yes"/>
      <point x="296" y="378"/>
      <point x="358" y="342"/>
      <point x="385" y="301" type="curve"/>
      <point x="395" y="351" type="line"/>
      <point x="365" y="399"/>
      <point x="299" y="455"/>
      <point x="217" y="455" type="curve" smooth="yes"/>
      <point x="131" y="455"/>
      <point x="55" y="396"/>
      <point x="55" y="301" type="curve" smooth="yes"/>
      <point x="55" y="211"/>
      <point x="117" y="138"/>
    </contour>
    <contour>
      <point x="403" y="-10" type="line"/>
      <point x="515" y="581" type="line"/>
      <point x="433" y="581" type="line"/>
      <point x="326" y="54" type="line"/>
      <point x="393" y="-10" type="line"/>
    </contour>
    <contour>
      <point x="1426" y="545" type="line"/>
      <point x="1428" y="555" type="line"/>
      <point x="1397" y="620" type="line"/>
      <point x="34" y="620" type="line"/>
      <point x="32" y="610" type="line"/>
      <point x="63" y="545" type="line"/>
    </contour>
  </outline>
</glyph>
<glyph name="dKKha" format="2">
  <advance width="1341"/>
  <outline>
    <contour>
      <point x="796" y="-20" type="line"/>
      <point x="847" y="19" type="line"/>
      <point x="677" y="246" type="line"/>
      <point x="678" y="235" type="line"/>
      <point x="731" y="245"/>
      <point x="775" y="255"/>
      <point x="810" y="358" type="curve" smooth="yes"/>
      <point x="825" y="403"/>
      <point x="838" y="462"/>
      <point x="850" y="551" type="curve"/>
      <point x="850" y="553"/>
      <point x="850" y="569"/>
      <point x="850" y="569" type="curve"/>
      <point x="767" y="567" type="line"/>
      <point x="764" y="543"/>
      <point x="763" y="523"/>
      <point x="755" y="482" type="curve" smooth="yes"/>
      <point x="748" y="446"/>
      <point x="736" y="391"/>
      <point x="721" y="358" type="curve"/>
      <point x="735" y="367" type="line"/>
      <point x="712" y="370"/>
      <point x="669" y="374"/>
      <point x="647" y="374" type="curve" smooth="yes"/>
      <point x="626" y="374"/>
      <point x="591" y="367"/>
      <point x="591" y="337" type="curve" smooth="yes"/>
      <point x="591" y="315"/>
      <point x="602" y="276"/>
      <point x="635" y="223" type="curve" smooth="yes"/>
      <point x="786" y="-20" type="line"/>
    </contour>
    <contour>
      <point x="208" y="138" type="curve" smooth="yes"/>
      <point x="274" y="138"/>
      <point x="334" y="177"/>
      <point x="394" y="217" type="curve" smooth="yes"/>
      <point x="442" y="249"/>
      <point x="536" y="324"/>
      <point x="595" y="324" type="curve"/>
      <point x="597" y="324"/>
      <point x="600" y="324"/>
      <point x="604" y="323" type="curve"/>
      <point x="649" y="358" type="line"/>
      <point x="632" y="389"/>
      <point x="615" y="401"/>
      <point x="587" y="401" type="curve" smooth="yes"/>
      <point x="538" y="401"/>
      <point x="480" y="365"/>
      <point x="409" y="318" type="curve" smooth="yes"/>
      <point x="300" y="246"/>
      <point x="243" y="202"/>
      <point x="187" y="202" type="curve" smooth="yes"/>
      <point x="144" y="202"/>
      <point x="120" y="227"/>
      <point x="120" y="272" type="curve" smooth="yes"/>
      <point x="120" y="341"/>
      <point x="178" y="378"/>
      <point x="239" y="378" type="curve" smooth="yes"/>
      <point x="296" y="378"/>
      <point x="358" y="342"/>
      <point x="385" y="301" type="curve"/>
      <point x="395" y="351" type="line"/>
      <point x="365" y="399"/>
      <point x="299" y="455"/>
      <point x="217" y="455" type="curve" smooth="yes"/>
      <point x="131" y="455"/>
      <point x="55" y="396"/>
      <point x="55" y="301" type="curve" smooth="yes"/>
      <point x="55" y="211"/>
      <point x="117" y="138"/>
    </contour>
    <contour>
      <point x="403" y="-10" type="line"/>
      <point x="515" y="581" type="line"/>
      <point x="433" y="581" type="line"/>
      <point x="326" y="54" type="line"/>
      <point x="393" y="-10" type="line"/>
    </contour>
    <contour>
      <point x="1426" y="545" type="line"/>
      <point x="1428" y="555" type="line"/>
      <point x="1397" y="620" type="line"/>
      <point x="34" y="620" type="line"/>
      <point x="32" y="610" type="line"/>
      <point x="63" y="545" type="line"/>
    </contour>
    <contour>
      <point x="1016" y="155" type="curve" smooth="yes"/>
      <point x="1067" y="155"/>
      <point x="1125" y="179"/>
      <point x="1184" y="228" type="curve"/>
      <point x="1204" y="334" type="line"/>
      <point x="1099" y="242"/>
      <point x="1039" y="217"/>
      <point x="997" y="217" type="curve" smooth="yes"/>
      <point x="962" y="217"/>
      <point x="932" y="235"/>
      <point x="932" y="283" type="curve" smooth="yes"/>
      <point x="932" y="347"/>
      <point x="991" y="386"/>
      <point x="1052" y="386" type="curve" smooth="yes"/>
      <point x="1112" y="386"/>
      <point x="1166" y="357"/>
      <point x="1195" y="303" type="curve"/>
      <point x="1205" y="354" type="line"/>
      <point x="1174" y="419"/>
      <point x="1107" y="463"/>
      <point x="1033" y="463" type="curve" smooth="yes"/>
      <point x="948" y="463"/>
      <point x="867" y="403"/>
      <point x="867" y="304" type="curve" smooth="yes"/>
      <point x="867" y="224"/>
      <point x="931" y="155"/>
    </contour>
    <contour>
      <point x="1204" y="-10" type="line"/>
      <point x="1321" y="601" type="line"/>
      <point x="1237" y="601" type="line"/>
      <point x="1127" y="52" type="line"/>
      <point x="1194" y="-10" type="line"/>
    </contour>
  </outline>
</glyph>
<glyph name="dKSDda" format="2">
  <advance width="1456"/>
  <outline>
    <contour>
      <point x="1198" y="7" type="curve" smooth="yes"/>
      <point x="1329" y="7"/>
      <point x="1396" y="79"/>
      <point x="1396" y="149" type="curve" smooth="yes"/>
      <point x="1396" y="221"/>
      <point x="1341" y="298"/>
      <point x="1290" y="298" type="curve" smooth="yes"/>
      <point x="1252" y="298"/>
      <point x="1152" y="273"/>
      <point x="1121" y="273" type="curve" smooth="yes"/>
      <point x="1101" y="273"/>
      <point x="1080" y="293"/>
      <point x="1080" y="326" type="curve" smooth="yes"/>
      <point x="1080" y="366"/>
      <point x="1107" y="385"/>
      <point x="1155" y="385" type="curve" smooth="yes"/>
      <point x="1366" y="385" type="line"/>
      <point x="1380" y="393" type="line"/>
      <point x="1390" y="445"/>
      <point x="1399" y="495"/>
      <point x="1413" y="575" type="curve"/>
      <point x="1332" y="575" type="line"/>
      <point x="1310" y="460" type="line"/>
      <point x="1145" y="460" type="line" smooth="yes"/>
      <point x="1051" y="460"/>
      <point x="1014" y="423"/>
      <point x="1014" y="357" type="curve" smooth="yes"/>
      <point x="1014" y="265"/>
      <point x="1093" y="201"/>
      <point x="1140" y="201" type="curve" smooth="yes"/>
      <point x="1182" y="201"/>
      <point x="1265" y="225"/>
      <point x="1304" y="225" type="curve" smooth="yes"/>
      <point x="1325" y="225"/>
      <point x="1336" y="212"/>
      <point x="1336" y="190" type="curve" smooth="yes"/>
      <point x="1336" y="160"/>
      <point x="1306" y="82"/>
      <point x="1181" y="82" type="curve" smooth="yes"/>
      <point x="1073" y="82"/>
      <point x="1013" y="131"/>
      <point x="976" y="201" type="curve"/>
      <point x="939" y="177" type="line"/>
      <point x="993" y="70"/>
      <point x="1081" y="7"/>
    </contour>
    <contour>
      <point x="214" y="138" type="curve" smooth="yes"/>
      <point x="272" y="138"/>
      <point x="318" y="169"/>
      <point x="411" y="225" type="curve" smooth="yes"/>
      <point x="495" y="275"/>
      <point x="560" y="331"/>
      <point x="613" y="331" type="curve" smooth="yes"/>
      <point x="625" y="331"/>
      <point x="636" y="328"/>
      <point x="647" y="321" type="curve"/>
      <point x="675" y="362" type="line"/>
      <point x="649" y="391"/>
      <point x="626" y="404"/>
      <point x="595" y="404" type="curve" smooth="yes"/>
      <point x="538" y="404"/>
      <point x="472" y="355"/>
      <point x="413" y="319" type="curve" smooth="yes"/>
      <point x="333" y="270"/>
      <point x="241" y="202"/>
      <point x="179" y="202" type="curve" smooth="yes"/>
      <point x="144" y="202"/>
      <point x="120" y="227"/>
      <point x="120" y="270" type="curve" smooth="yes"/>
      <point x="120" y="341"/>
      <point x="184" y="378"/>
      <point x="242" y="378" type="curve" smooth="yes"/>
      <point x="304" y="378"/>
      <point x="358" y="342"/>
      <point x="385" y="301" type="curve"/>
      <point x="395" y="352" type="line"/>
      <point x="363" y="409"/>
      <point x="293" y="455"/>
      <point x="218" y="455" type="curve" smooth="yes"/>
      <point x="128" y="455"/>
      <point x="55" y="393"/>
      <point x="55" y="300" type="curve" smooth="yes"/>
      <point x="55" y="217"/>
      <point x="117" y="138"/>
    </contour>
    <contour>
      <point x="403" y="-10" type="line"/>
      <point x="519" y="601" type="line"/>
      <point x="437" y="601" type="line"/>
      <point x="326" y="54" type="line"/>
      <point x="393" y="-10" type="line"/>
    </contour>
    <contour>
      <point x="789" y="-20" type="line"/>
      <point x="842" y="18" type="line"/>
      <point x="671" y="246" type="line"/>
      <point x="670" y="235" type="line"/>
      <point x="730" y="234"/>
      <point x="769" y="265"/>
      <point x="796" y="310" type="curve" smooth="yes"/>
      <point x="837" y="380"/>
      <point x="848" y="485"/>
      <point x="853" y="567" type="curve"/>
      <point x="773" y="567" type="line"/>
      <point x="771" y="543"/>
      <point x="769" y="523"/>
      <point x="761" y="482" type="curve" smooth="yes"/>
      <point x="754" y="446"/>
      <point x="742" y="391"/>
      <point x="727" y="358" type="curve"/>
      <point x="740" y="367" type="line"/>
      <point x="721" y="369"/>
      <point x="674" y="373"/>
      <point x="651" y="374" type="curve"/>
      <point x="618" y="374"/>
      <point x="587" y="365"/>
      <point x="587" y="328" type="curve" smooth="yes"/>
      <point x="587" y="297"/>
      <point x="604" y="260"/>
      <point x="644" y="196" type="curve" smooth="yes"/>
      <point x="779" y="-20" type="line"/>
    </contour>
    <contour>
      <point x="933" y="224" type="curve" smooth="yes"/>
      <point x="970" y="224"/>
      <point x="1014" y="236"/>
      <point x="1058" y="262" type="curve"/>
      <point x="1030" y="336" type="line"/>
      <point x="983" y="310"/>
      <point x="944" y="301"/>
      <point x="912" y="301" type="curve" smooth="yes"/>
      <point x="871" y="301"/>
      <point x="821" y="317"/>
      <point x="794" y="340" type="curve"/>
      <point x="770" y="301" type="line"/>
      <point x="811" y="256"/>
      <point x="866" y="224"/>
    </contour>
    <contour>
      <point x="1541" y="545" type="line"/>
      <point x="1543" y="555" type="line"/>
      <point x="1512" y="620" type="line"/>
      <point x="34" y="620" type="line"/>
      <point x="32" y="610" type="line"/>
      <point x="63" y="545" type="line"/>
    </contour>
  </outline>
</glyph>
<glyph name="dKSTta" format="2">
  <advance width="1454"/>
  <outline>
    <component base="dTta" xOffset="915"/>
    <contour>
      <point x="214" y="138" type="curve" smooth="yes"/>
      <point x="272" y="138"/>
      <point x="318" y="169"/>
      <point x="411" y="225" type="curve" smooth="yes"/>
      <point x="495" y="275"/>
      <point x="560" y="331"/>
      <point x="613" y="331" type="curve" smooth="yes"/>
      <point x="625" y="331"/>
      <point x="636" y="328"/>
      <point x="647" y="321" type="curve"/>
      <point x="675" y="362" type="line"/>
      <point x="649" y="391"/>
      <point x="626" y="404"/>
      <point x="595" y="404" type="curve" smooth="yes"/>
      <point x="538" y="404"/>
      <point x="472" y="355"/>
      <point x="413" y="319" type="curve" smooth="yes"/>
      <point x="333" y="270"/>
      <point x="241" y="202"/>
      <point x="179" y="202" type="curve" smooth="yes"/>
      <point x="144" y="202"/>
      <point x="120" y="227"/>
      <point x="120" y="270" type="curve" smooth="yes"/>
      <point x="120" y="341"/>
      <point x="184" y="378"/>
      <point x="242" y="378" type="curve" smooth="yes"/>
      <point x="304" y="378"/>
      <point x="358" y="342"/>
      <point x="385" y="301" type="curve"/>
      <point x="395" y="352" type="line"/>
      <point x="363" y="409"/>
      <point x="293" y="455"/>
      <point x="218" y="455" type="curve" smooth="yes"/>
      <point x="128" y="455"/>
      <point x="55" y="393"/>
      <point x="55" y="300" type="curve" smooth="yes"/>
      <point x="55" y="217"/>
      <point x="117" y="138"/>
    </contour>
    <contour>
      <point x="403" y="-10" type="line"/>
      <point x="519" y="601" type="line"/>
      <point x="437" y="601" type="line"/>
      <point x="326" y="54" type="line"/>
      <point x="393" y="-10" type="line"/>
    </contour>
    <contour>
      <point x="789" y="-20" type="line"/>
      <point x="842" y="18" type="line"/>
      <point x="671" y="246" type="line"/>
      <point x="670" y="235" type="line"/>
      <point x="730" y="234"/>
      <point x="769" y="265"/>
      <point x="796" y="310" type="curve" smooth="yes"/>
      <point x="837" y="380"/>
      <point x="848" y="485"/>
      <point x="853" y="567" type="curve"/>
      <point x="773" y="567" type="line"/>
      <point x="771" y="543"/>
      <point x="769" y="523"/>
      <point x="761" y="482" type="curve" smooth="yes"/>
      <point x="754" y="446"/>
      <point x="742" y="391"/>
      <point x="727" y="358" type="curve"/>
      <point x="740" y="367" type="line"/>
      <point x="721" y="369"/>
      <point x="674" y="373"/>
      <point x="651" y="374" type="curve"/>
      <point x="618" y="374"/>
      <point x="587" y="365"/>
      <point x="587" y="328" type="curve" smooth="yes"/>
      <point x="587" y="297"/>
      <point x="604" y="260"/>
      <point x="644" y="196" type="curve" smooth="yes"/>
      <point x="779" y="-20" type="line"/>
    </contour>
    <contour>
      <point x="1092" y="545" type="line"/>
      <point x="1094" y="555" type="line"/>
      <point x="1063" y="620" type="line"/>
      <point x="34" y="620" type="line"/>
      <point x="32" y="610" type="line"/>
      <point x="63" y="545" type="line"/>
    </contour>
    <contour>
      <point x="917" y="228" type="curve" smooth="yes"/>
      <point x="954" y="228"/>
      <point x="993" y="241"/>
      <point x="1037" y="273" type="curve"/>
      <point x="1017" y="356" type="line"/>
      <point x="985" y="318"/>
      <point x="944" y="302"/>
      <point x="902" y="302" type="curve" smooth="yes"/>
      <point x="863" y="302"/>
      <point x="823" y="313"/>
      <point x="794" y="340" type="curve"/>
      <point x="770" y="301" type="line"/>
      <point x="811" y="256"/>
      <point x="862" y="228"/>
    </contour>
  </outline>
</glyph>
<glyph name="dKTRa" format="2">
  <advance width="1182"/>
  <outline>
    <component base="dK.half"/>
    <contour>
      <point x="1048" y="307" type="line"/>
      <point x="1067" y="411" type="line"/>
      <point x="779" y="199" type="line"/>
      <point x="832" y="141" type="line"/>
    </contour>
    <contour>
      <point x="1044" y="-10" type="line"/>
      <point x="1157" y="581" type="line"/>
      <point x="1073" y="581" type="line"/>
      <point x="967" y="42" type="line"/>
      <point x="1034" y="-10" type="line"/>
    </contour>
    <contour>
      <point x="1267" y="545" type="line"/>
      <point x="1269" y="555" type="line"/>
      <point x="1238" y="620" type="line"/>
      <point x="593" y="620" type="line"/>
      <point x="591" y="610" type="line"/>
      <point x="622" y="545" type="line"/>
    </contour>
    <contour>
      <point x="731" y="-10" type="line"/>
      <point x="778" y="23" type="line"/>
      <point x="700" y="128"/>
      <point x="683" y="175"/>
      <point x="683" y="232" type="curve" smooth="yes"/>
      <point x="683" y="343"/>
      <point x="770" y="374"/>
      <point x="881" y="374" type="curve" smooth="yes"/>
      <point x="938" y="374"/>
      <point x="1005" y="364"/>
      <point x="1060" y="354" type="curve"/>
      <point x="1058" y="433" type="line"/>
      <point x="1005" y="441"/>
      <point x="933" y="449"/>
      <point x="873" y="449" type="curve" smooth="yes"/>
      <point x="734" y="449"/>
      <point x="615" y="408"/>
      <point x="615" y="269" type="curve" smooth="yes"/>
      <point x="615" y="185"/>
      <point x="657" y="100"/>
      <point x="721" y="-10" type="curve"/>
    </contour>
  </outline>
</glyph>
<glyph name="dKTRa.ss02" format="2">
  <advance width="803"/>
  <outline>
    <contour>
      <point x="490" y="261" type="line" smooth="yes"/>
      <point x="546" y="300"/>
      <point x="620" y="355"/>
      <point x="660" y="355" type="curve" smooth="yes"/>
      <point x="686" y="355"/>
      <point x="703" y="333"/>
      <point x="703" y="306" type="curve" smooth="yes"/>
      <point x="703" y="256"/>
      <point x="645" y="184"/>
      <point x="582" y="127" type="curve"/>
      <point x="648" y="68" type="line"/>
      <point x="656" y="68" type="line"/>
      <point x="729" y="145"/>
      <point x="759" y="202"/>
      <point x="759" y="269" type="curve" smooth="yes"/>
      <point x="759" y="377"/>
      <point x="681" y="430"/>
      <point x="632" y="430" type="curve" smooth="yes"/>
      <point x="592" y="430"/>
      <point x="546" y="395"/>
      <point x="501" y="363" type="curve"/>
      <point x="430" y="302" type="line"/>
      <point x="98" y="80" type="line"/>
      <point x="151" y="27" type="line"/>
    </contour>
    <contour>
      <point x="473" y="289" type="line"/>
      <point x="482" y="356" type="line"/>
      <point x="86" y="298" type="line"/>
      <point x="104" y="222" type="line"/>
    </contour>
    <contour>
      <point x="448" y="356" type="line"/>
      <point x="332" y="472"/>
      <point x="306" y="485"/>
      <point x="242" y="485" type="curve" smooth="yes"/>
      <point x="210" y="485"/>
      <point x="146" y="482"/>
      <point x="84" y="474" type="curve"/>
      <point x="83" y="469" type="line"/>
      <point x="104" y="393" type="line"/>
      <point x="156" y="400"/>
      <point x="244" y="407"/>
      <point x="274" y="407" type="curve" smooth="yes"/>
      <point x="317" y="407"/>
      <point x="347" y="401"/>
      <point x="431" y="319" type="curve"/>
    </contour>
    <contour>
      <point x="443" y="-10" type="line"/>
      <point x="555" y="581" type="line"/>
      <point x="474" y="581" type="line"/>
      <point x="367" y="54" type="line"/>
      <point x="433" y="-10" type="line"/>
    </contour>
    <contour>
      <point x="888" y="545" type="line"/>
      <point x="890" y="555" type="line"/>
      <point x="859" y="620" type="line"/>
      <point x="34" y="620" type="line"/>
      <point x="32" y="610" type="line"/>
      <point x="63" y="545" type="line"/>
    </contour>
  </outline>
  <guideline angle="37.8793" x="0" y="-113"/>
</glyph>
<glyph name="dKh.half" format="2">
  <advance width="571"/>
  <outline>
    <contour>
      <point x="270" y="-20" type="line"/>
      <point x="326" y="20" type="line"/>
      <point x="151" y="246" type="line"/>
      <point x="152" y="235" type="line"/>
      <point x="241" y="246"/>
      <point x="276" y="303"/>
      <point x="310" y="464" type="curve" smooth="yes"/>
      <point x="316" y="492"/>
      <point x="323" y="536"/>
      <point x="325" y="576" type="curve"/>
      <point x="241" y="576" type="line"/>
      <point x="239" y="537"/>
      <point x="239" y="529"/>
      <point x="229" y="479" type="curve" smooth="yes"/>
      <point x="223" y="447"/>
      <point x="210" y="390"/>
      <point x="195" y="358" type="curve"/>
      <point x="209" y="367" type="line"/>
      <point x="186" y="370"/>
      <point x="143" y="374"/>
      <point x="121" y="374" type="curve" smooth="yes"/>
      <point x="79" y="374"/>
      <point x="63" y="361"/>
      <point x="63" y="337" type="curve" smooth="yes"/>
      <point x="63" y="310"/>
      <point x="76" y="277"/>
      <point x="109" y="223" type="curve" smooth="yes"/>
      <point x="260" y="-20" type="line"/>
    </contour>
    <contour>
      <point x="500" y="155" type="curve" smooth="yes"/>
      <point x="550" y="155"/>
      <point x="606" y="174"/>
      <point x="670" y="237" type="curve"/>
      <point x="652" y="312" type="line"/>
      <point x="563" y="232"/>
      <point x="508" y="217"/>
      <point x="475" y="217" type="curve" smooth="yes"/>
      <point x="432" y="217"/>
      <point x="405" y="236"/>
      <point x="405" y="281" type="curve" smooth="yes"/>
      <point x="405" y="349"/>
      <point x="459" y="389"/>
      <point x="523" y="389" type="curve" smooth="yes"/>
      <point x="578" y="389"/>
      <point x="628" y="362"/>
      <point x="654" y="324" type="curve"/>
      <point x="670" y="367" type="line"/>
      <point x="647" y="412"/>
      <point x="588" y="463"/>
      <point x="504" y="463" type="curve" smooth="yes"/>
      <point x="415" y="463"/>
      <point x="340" y="406"/>
      <point x="340" y="312" type="curve" smooth="yes"/>
      <point x="340" y="234"/>
      <point x="408" y="155"/>
    </contour>
    <contour>
      <point x="728" y="545" type="line"/>
      <point x="730" y="555" type="line"/>
      <point x="699" y="620" type="line"/>
      <point x="34" y="620" type="line"/>
      <point x="32" y="610" type="line"/>
      <point x="63" y="545" type="line"/>
    </contour>
  </outline>
</glyph>
<glyph name="dKhNa" format="2">
  <advance width="838"/>
  <outline>
    <contour>
      <point x="254" y="-20" type="line"/>
      <point x="308" y="19" type="line"/>
      <point x="148" y="246" type="line"/>
      <point x="151" y="235" type="line"/>
      <point x="227" y="249"/>
      <point x="278" y="300"/>
      <point x="311" y="471" type="curve" smooth="yes"/>
      <point x="318" y="507"/>
      <point x="324" y="554"/>
      <point x="325" y="568" type="curve"/>
      <point x="241" y="562" type="line"/>
      <point x="239" y="543"/>
      <point x="237" y="523"/>
      <point x="229" y="482" type="curve" smooth="yes"/>
      <point x="222" y="446"/>
      <point x="210" y="391"/>
      <point x="195" y="358" type="curve"/>
      <point x="209" y="367" type="line"/>
      <point x="186" y="370"/>
      <point x="143" y="374"/>
      <point x="118" y="374" type="curve" smooth="yes"/>
      <point x="79" y="374"/>
      <point x="63" y="361"/>
      <point x="63" y="334" type="curve" smooth="yes"/>
      <point x="63" y="315"/>
      <point x="76" y="277"/>
      <point x="93" y="247" type="curve" smooth="yes"/>
      <point x="244" y="-20" type="line"/>
    </contour>
    <contour>
      <point x="477" y="-28" type="curve" smooth="yes"/>
      <point x="499" y="-28"/>
      <point x="508" y="-14"/>
      <point x="508" y="0" type="curve" smooth="yes"/>
      <point x="508" y="12"/>
      <point x="503" y="35"/>
      <point x="489" y="78" type="curve"/>
      <point x="714" y="253" type="line"/>
      <point x="723" y="341" type="line"/>
      <point x="398" y="98" type="line" smooth="yes"/>
      <point x="367" y="75"/>
      <point x="354" y="67"/>
      <point x="354" y="44" type="curve" smooth="yes"/>
      <point x="354" y="10"/>
      <point x="438" y="-28"/>
    </contour>
    <contour>
      <point x="519" y="156" type="curve" smooth="yes"/>
      <point x="571" y="156"/>
      <point x="607" y="185"/>
      <point x="674" y="233" type="curve"/>
      <point x="700" y="332" type="line"/>
      <point x="596" y="247"/>
      <point x="541" y="217"/>
      <point x="495" y="217" type="curve" smooth="yes"/>
      <point x="459" y="217"/>
      <point x="428" y="233"/>
      <point x="428" y="283" type="curve" smooth="yes"/>
      <point x="428" y="347"/>
      <point x="477" y="389"/>
      <point x="541" y="389" type="curve" smooth="yes"/>
      <point x="596" y="389"/>
      <point x="659" y="357"/>
      <point x="683" y="314" type="curve"/>
      <point x="694" y="361" type="line"/>
      <point x="666" y="411"/>
      <point x="599" y="463"/>
      <point x="519" y="463" type="curve" smooth="yes"/>
      <point x="434" y="463"/>
      <point x="363" y="406"/>
      <point x="363" y="318" type="curve" smooth="yes"/>
      <point x="363" y="232"/>
      <point x="431" y="156"/>
    </contour>
    <contour>
      <point x="700" y="-10" type="line"/>
      <point x="813" y="581" type="line"/>
      <point x="729" y="581" type="line"/>
      <point x="623" y="52" type="line"/>
      <point x="690" y="-10" type="line"/>
    </contour>
    <contour>
      <point x="923" y="545" type="line"/>
      <point x="925" y="555" type="line"/>
      <point x="894" y="620" type="line"/>
      <point x="34" y="620" type="line"/>
      <point x="32" y="610" type="line"/>
      <point x="63" y="545" type="line"/>
    </contour>
  </outline>
</glyph>
<glyph name="dKhRa" format="2">
  <advance width="838"/>
  <outline>
    <contour>
      <point x="254" y="-20" type="line"/>
      <point x="308" y="19" type="line"/>
      <point x="150" y="246" type="line"/>
      <point x="151" y="235" type="line"/>
      <point x="227" y="249"/>
      <point x="278" y="300"/>
      <point x="311" y="471" type="curve" smooth="yes"/>
      <point x="314" y="487"/>
      <point x="324" y="544"/>
      <point x="324" y="571" type="curve"/>
      <point x="243" y="567" type="line"/>
      <point x="239" y="543"/>
      <point x="237" y="523"/>
      <point x="229" y="482" type="curve" smooth="yes"/>
      <point x="222" y="446"/>
      <point x="210" y="391"/>
      <point x="195" y="358" type="curve"/>
      <point x="209" y="367" type="line"/>
      <point x="186" y="370"/>
      <point x="143" y="374"/>
      <point x="121" y="374" type="curve" smooth="yes"/>
      <point x="79" y="374"/>
      <point x="63" y="361"/>
      <point x="63" y="334" type="curve" smooth="yes"/>
      <point x="63" y="313"/>
      <point x="76" y="277"/>
      <point x="105" y="226" type="curve" smooth="yes"/>
      <point x="244" y="-20" type="line"/>
    </contour>
    <contour>
      <point x="710" y="245" type="line"/>
      <point x="726" y="334" type="line"/>
      <point x="327" y="87" type="line"/>
      <point x="374" y="24" type="line"/>
    </contour>
    <contour>
      <point x="507" y="165" type="curve" smooth="yes"/>
      <point x="567" y="165"/>
      <point x="613" y="193"/>
      <point x="674" y="236" type="curve"/>
      <point x="701" y="336" type="line"/>
      <point x="601" y="255"/>
      <point x="551" y="221"/>
      <point x="501" y="221" type="curve" smooth="yes"/>
      <point x="455" y="221"/>
      <point x="429" y="251"/>
      <point x="429" y="294" type="curve" smooth="yes"/>
      <point x="429" y="340"/>
      <point x="459" y="393"/>
      <point x="543" y="393" type="curve" smooth="yes"/>
      <point x="592" y="393"/>
      <point x="660" y="361"/>
      <point x="684" y="318" type="curve"/>
      <point x="695" y="365" type="line"/>
      <point x="667" y="415"/>
      <point x="600" y="467"/>
      <point x="518" y="467" type="curve" smooth="yes"/>
      <point x="427" y="467"/>
      <point x="364" y="409"/>
      <point x="364" y="327" type="curve" smooth="yes"/>
      <point x="364" y="242"/>
      <point x="434" y="165"/>
    </contour>
    <contour>
      <point x="700" y="-10" type="line"/>
      <point x="811" y="571" type="line"/>
      <point x="727" y="571" type="line"/>
      <point x="623" y="52" type="line"/>
      <point x="690" y="-10" type="line"/>
    </contour>
    <contour>
      <point x="923" y="545" type="line"/>
      <point x="925" y="555" type="line"/>
      <point x="894" y="620" type="line"/>
      <point x="34" y="620" type="line"/>
      <point x="32" y="610" type="line"/>
      <point x="63" y="545" type="line"/>
    </contour>
  </outline>
</glyph>
<glyph name="dLBh.half" format="2">
  <advance width="804"/>
  <outline>
    <component base="dBh.half" xOffset="344"/>
    <contour>
      <point x="456" y="394" type="curve" smooth="yes"/>
      <point x="374" y="394"/>
      <point x="304" y="309"/>
      <point x="255" y="226" type="curve"/>
      <point x="324" y="178" type="line"/>
      <point x="394" y="283"/>
      <point x="435" y="329"/>
      <point x="478" y="329" type="curve" smooth="yes"/>
      <point x="503" y="329"/>
      <point x="522" y="316"/>
      <point x="533" y="293" type="curve"/>
      <point x="580" y="300" type="line"/>
      <point x="537" y="377"/>
      <point x="492" y="394"/>
    </contour>
    <contour>
      <point x="512" y="545" type="line"/>
      <point x="554" y="620" type="line"/>
      <point x="34" y="620" type="line"/>
      <point x="32" y="610" type="line"/>
      <point x="63" y="545" type="line"/>
    </contour>
    <contour>
      <point x="346" y="327" type="line"/>
      <point x="317" y="370"/>
      <point x="270" y="415"/>
      <point x="202" y="415" type="curve" smooth="yes"/>
      <point x="102" y="415"/>
      <point x="47" y="327"/>
      <point x="47" y="244" type="curve" smooth="yes"/>
      <point x="47" y="143"/>
      <point x="107" y="59"/>
      <point x="189" y="-41" type="curve"/>
      <point x="199" y="-41" type="line"/>
      <point x="244" y="-10" type="line"/>
      <point x="150" y="78"/>
      <point x="119" y="138"/>
      <point x="119" y="202" type="curve" smooth="yes"/>
      <point x="119" y="283"/>
      <point x="167" y="341"/>
      <point x="237" y="341" type="curve" smooth="yes"/>
      <point x="275" y="341"/>
      <point x="303" y="322"/>
      <point x="319" y="296" type="curve"/>
    </contour>
  </outline>
</glyph>
<glyph name="dLMa" format="2">
  <advance width="1022"/>
  <outline>
    <component base="dMa" xOffset="410"/>
    <contour>
      <point x="470" y="442" type="curve" smooth="yes"/>
      <point x="385" y="442"/>
      <point x="316" y="353"/>
      <point x="267" y="268" type="curve"/>
      <point x="335" y="220" type="line"/>
      <point x="406" y="330"/>
      <point x="447" y="377"/>
      <point x="501" y="377" type="curve" smooth="yes"/>
      <point x="519" y="377"/>
      <point x="545" y="372"/>
      <point x="567" y="346" type="curve"/>
      <point x="577" y="386" type="line"/>
      <point x="538" y="430"/>
      <point x="498" y="442"/>
    </contour>
    <contour>
      <point x="613" y="545" type="line"/>
      <point x="615" y="555" type="line"/>
      <point x="594" y="620" type="line"/>
      <point x="34" y="620" type="line"/>
      <point x="32" y="610" type="line"/>
      <point x="63" y="545" type="line"/>
    </contour>
    <contour>
      <point x="353" y="369" type="line"/>
      <point x="325" y="411"/>
      <point x="283" y="454"/>
      <point x="213" y="454" type="curve" smooth="yes"/>
      <point x="114" y="454"/>
      <point x="55" y="366"/>
      <point x="55" y="277" type="curve" smooth="yes"/>
      <point x="55" y="177"/>
      <point x="115" y="95"/>
      <point x="203" y="-10" type="curve"/>
      <point x="213" y="-10" type="line"/>
      <point x="259" y="22" type="line"/>
      <point x="160" y="114"/>
      <point x="129" y="169"/>
      <point x="129" y="240" type="curve" smooth="yes"/>
      <point x="129" y="322"/>
      <point x="179" y="380"/>
      <point x="243" y="380" type="curve" smooth="yes"/>
      <point x="275" y="380"/>
      <point x="311" y="362"/>
      <point x="328" y="337" type="curve"/>
    </contour>
  </outline>
</glyph>
<glyph name="dLRa" format="2">
  <advance width="685"/>
  <outline>
    <contour>
      <point x="590" y="300" type="curve" smooth="yes"/>
      <point x="590" y="235"/>
      <point x="540" y="178"/>
      <point x="428" y="86" type="curve"/>
      <point x="482" y="30" type="line"/>
      <point x="490" y="30" type="line"/>
      <point x="583" y="110"/>
      <point x="642" y="184"/>
      <point x="642" y="267" type="curve" smooth="yes"/>
      <point x="642" y="343"/>
      <point x="603" y="444"/>
      <point x="496" y="444" type="curve" smooth="yes"/>
      <point x="409" y="444"/>
      <point x="341" y="369"/>
      <point x="272" y="272" type="curve"/>
      <point x="335" y="227" type="line"/>
      <point x="405" y="329"/>
      <point x="459" y="380"/>
      <point x="518" y="380" type="curve" smooth="yes"/>
      <point x="562" y="380"/>
      <point x="590" y="345"/>
    </contour>
    <contour>
      <point x="498" y="571" type="line"/>
      <point x="469" y="408" type="line"/>
      <point x="549" y="408" type="line"/>
      <point x="579" y="571" type="line"/>
    </contour>
    <contour>
      <point x="584" y="397" type="line"/>
      <point x="363" y="193" type="line"/>
      <point x="420" y="145" type="line"/>
      <point x="614" y="345" type="line"/>
    </contour>
    <contour>
      <point x="770" y="545" type="line"/>
      <point x="772" y="555" type="line"/>
      <point x="741" y="620" type="line"/>
      <point x="34" y="620" type="line"/>
      <point x="32" y="610" type="line"/>
      <point x="63" y="545" type="line"/>
    </contour>
    <contour>
      <point x="213" y="-10" type="line"/>
      <point x="260" y="23" type="line"/>
      <point x="161" y="115"/>
      <point x="129" y="170"/>
      <point x="129" y="245" type="curve" smooth="yes"/>
      <point x="129" y="323"/>
      <point x="175" y="374"/>
      <point x="240" y="374" type="curve" smooth="yes"/>
      <point x="274" y="374"/>
      <point x="307" y="357"/>
      <point x="324" y="332" type="curve"/>
      <point x="352" y="363" type="line"/>
      <point x="324" y="409"/>
      <point x="272" y="448"/>
      <point x="212" y="448" type="curve" smooth="yes"/>
      <point x="103" y="448"/>
      <point x="55" y="364"/>
      <point x="55" y="286" type="curve" smooth="yes"/>
      <point x="55" y="177"/>
      <point x="115" y="95"/>
      <point x="203" y="-10" type="curve"/>
    </contour>
  </outline>
</glyph>
<glyph name="dLl.half" format="2">
  <advance width="581"/>
  <outline>
    <contour>
      <point x="506" y="55" type="curve" smooth="yes"/>
      <point x="618" y="55"/>
      <point x="687" y="153"/>
      <point x="687" y="258" type="curve" smooth="yes"/>
      <point x="687" y="357"/>
      <point x="625" y="433"/>
      <point x="531" y="433" type="curve" smooth="yes"/>
      <point x="463" y="433"/>
      <point x="415" y="393"/>
      <point x="371" y="330" type="curve" smooth="yes"/>
      <point x="305" y="236"/>
      <point x="265" y="121"/>
      <point x="173" y="121" type="curve" smooth="yes"/>
      <point x="124" y="121"/>
      <point x="98" y="154"/>
      <point x="98" y="200" type="curve" smooth="yes"/>
      <point x="98" y="274"/>
      <point x="164" y="377"/>
      <point x="258" y="377" type="curve" smooth="yes"/>
      <point x="296" y="377"/>
      <point x="332" y="360"/>
      <point x="369" y="304" type="curve"/>
      <point x="392" y="337" type="line"/>
      <point x="351" y="403"/>
      <point x="295" y="444"/>
      <point x="225" y="444" type="curve" smooth="yes"/>
      <point x="115" y="444"/>
      <point x="40" y="345"/>
      <point x="40" y="239" type="curve" smooth="yes"/>
      <point x="40" y="136"/>
      <point x="111" y="59"/>
      <point x="205" y="59" type="curve" smooth="yes"/>
      <point x="290" y="59"/>
      <point x="342" y="124"/>
      <point x="375" y="177" type="curve" smooth="yes"/>
      <point x="416" y="243"/>
      <point x="482" y="380"/>
      <point x="562" y="380" type="curve" smooth="yes"/>
      <point x="603" y="380"/>
      <point x="628" y="344"/>
      <point x="628" y="291" type="curve" smooth="yes"/>
      <point x="628" y="201"/>
      <point x="554" y="123"/>
      <point x="478" y="123" type="curve" smooth="yes"/>
      <point x="438" y="123"/>
      <point x="396" y="145"/>
      <point x="370" y="192" type="curve"/>
      <point x="344" y="162" type="line"/>
      <point x="393" y="86"/>
      <point x="443" y="55"/>
    </contour>
    <contour>
      <point x="748" y="545" type="line"/>
      <point x="750" y="555" type="line"/>
      <point x="718" y="620" type="line"/>
      <point x="33" y="620" type="line"/>
      <point x="31" y="610" type="line"/>
      <point x="63" y="545" type="line"/>
    </contour>
  </outline>
</glyph>
<glyph name="dNBh.half" format="2">
  <advance width="705"/>
  <outline>
    <component base="dBh.half" xOffset="245"/>
    <contour>
      <point x="516" y="310" type="line"/>
      <point x="334" y="315"/>
      <point x="209" y="317"/>
      <point x="123" y="317" type="curve" smooth="yes"/>
      <point x="87" y="317"/>
      <point x="57" y="312"/>
      <point x="57" y="280" type="curve" smooth="yes"/>
      <point x="57" y="228"/>
      <point x="140" y="132"/>
      <point x="176" y="132" type="curve" smooth="yes"/>
      <point x="191" y="132"/>
      <point x="203" y="142"/>
      <point x="206" y="159" type="curve" smooth="yes"/>
      <point x="222" y="240" type="line"/>
      <point x="500" y="240" type="line"/>
    </contour>
    <contour>
      <point x="397" y="545" type="line"/>
      <point x="444" y="620" type="line"/>
      <point x="34" y="620" type="line"/>
      <point x="32" y="610" type="line"/>
      <point x="63" y="545" type="line"/>
    </contour>
  </outline>
</glyph>
<glyph name="dNSha" format="2">
  <advance width="1004"/>
  <outline>
    <component base="dSha" xOffset="325"/>
    <contour>
      <point x="421" y="282" type="line"/>
      <point x="309" y="285"/>
      <point x="176" y="288"/>
      <point x="139" y="288" type="curve" smooth="yes"/>
      <point x="80" y="288"/>
      <point x="46" y="283"/>
      <point x="46" y="237" type="curve" smooth="yes"/>
      <point x="46" y="186"/>
      <point x="112" y="106"/>
      <point x="156" y="106" type="curve" smooth="yes"/>
      <point x="187" y="106"/>
      <point x="196" y="133"/>
      <point x="211" y="211" type="curve"/>
      <point x="406" y="211" type="line"/>
    </contour>
    <contour>
      <point x="495" y="545" type="line"/>
      <point x="497" y="555" type="line"/>
      <point x="466" y="620" type="line"/>
      <point x="34" y="620" type="line"/>
      <point x="32" y="610" type="line"/>
      <point x="63" y="545" type="line"/>
    </contour>
  </outline>
</glyph>
<glyph name="dNgGa" format="2">
  <advance width="620"/>
  <outline>
    <contour>
      <point x="313" y="80" type="curve" smooth="yes"/>
      <point x="442" y="80"/>
      <point x="490" y="139"/>
      <point x="490" y="202" type="curve" smooth="yes"/>
      <point x="490" y="268"/>
      <point x="427" y="335"/>
      <point x="378" y="335" type="curve" smooth="yes"/>
      <point x="346" y="335"/>
      <point x="254" y="313"/>
      <point x="230" y="313" type="curve" smooth="yes"/>
      <point x="212" y="313"/>
      <point x="195" y="331"/>
      <point x="195" y="357" type="curve" smooth="yes"/>
      <point x="195" y="395"/>
      <point x="221" y="410"/>
      <point x="269" y="410" type="curve" smooth="yes"/>
      <point x="460" y="410" type="line"/>
      <point x="474" y="418" type="line"/>
      <point x="484" y="469"/>
      <point x="494" y="523"/>
      <point x="505" y="583" type="curve"/>
      <point x="425" y="583" type="line"/>
      <point x="405" y="482" type="line"/>
      <point x="258" y="482" type="line" smooth="yes"/>
      <point x="164" y="482"/>
      <point x="130" y="447"/>
      <point x="130" y="388" type="curve" smooth="yes"/>
      <point x="130" y="319"/>
      <point x="203" y="243"/>
      <point x="261" y="243" type="curve" smooth="yes"/>
      <point x="295" y="243"/>
      <point x="364" y="264"/>
      <point x="400" y="264" type="curve" smooth="yes"/>
      <point x="419" y="264"/>
      <point x="428" y="255"/>
      <point x="428" y="237" type="curve" smooth="yes"/>
      <point x="428" y="201"/>
      <point x="399" y="152"/>
      <point x="295" y="152" type="curve" smooth="yes"/>
      <point x="169" y="152"/>
      <point x="120" y="210"/>
      <point x="85" y="298" type="curve"/>
      <point x="49" y="280" type="line"/>
      <point x="86" y="162"/>
      <point x="185" y="80"/>
    </contour>
    <contour>
      <point x="129" y="-160" type="curve" smooth="yes"/>
      <point x="144" y="-160"/>
      <point x="154" y="-152"/>
      <point x="157" y="-135" type="curve" smooth="yes"/>
      <point x="212" y="153" type="line"/>
      <point x="141" y="153" type="line"/>
      <point x="109" y="1" type="line"/>
      <point x="50" y="1" type="line" smooth="yes"/>
      <point x="29" y="1"/>
      <point x="20" y="-10"/>
      <point x="20" y="-27" type="curve" smooth="yes"/>
      <point x="20" y="-78"/>
      <point x="95" y="-160"/>
    </contour>
    <contour>
      <point x="357" y="-272" type="line"/>
      <point x="433" y="140" type="line"/>
      <point x="357" y="127" type="line"/>
      <point x="289" y="-217" type="line"/>
      <point x="348" y="-272" type="line"/>
    </contour>
    <contour>
      <point x="625" y="354" type="line"/>
      <point x="564" y="424" type="line"/>
      <point x="486" y="356" type="line"/>
      <point x="547" y="286" type="line"/>
    </contour>
    <contour>
      <point x="705" y="545" type="line"/>
      <point x="707" y="555" type="line"/>
      <point x="676" y="620" type="line"/>
      <point x="34" y="620" type="line"/>
      <point x="32" y="610" type="line"/>
      <point x="63" y="545" type="line"/>
    </contour>
  </outline>
</glyph>
<glyph name="dNgKha" format="2">
  <advance width="625"/>
  <outline>
    <contour>
      <point x="126" y="-318" type="line"/>
      <point x="173" y="-285" type="line"/>
      <point x="27" y="-94" type="line"/>
      <point x="27" y="-105" type="line"/>
      <point x="89" y="-98"/>
      <point x="118" y="-64"/>
      <point x="137" y="-12" type="curve" smooth="yes"/>
      <point x="151" y="27"/>
      <point x="160" y="78"/>
      <point x="169" y="136" type="curve"/>
      <point x="106" y="185" type="line"/>
      <point x="103" y="166"/>
      <point x="99" y="131"/>
      <point x="93" y="102" type="curve" smooth="yes"/>
      <point x="87" y="72"/>
      <point x="77" y="23"/>
      <point x="63" y="-2" type="curve"/>
      <point x="78" y="6" type="line"/>
      <point x="60" y="8"/>
      <point x="21" y="12"/>
      <point x="3" y="12" type="curve" smooth="yes"/>
      <point x="-34" y="12"/>
      <point x="-46" y="0"/>
      <point x="-46" y="-23" type="curve" smooth="yes"/>
      <point x="-46" y="-40"/>
      <point x="-36" y="-70"/>
      <point x="-15" y="-104" type="curve" smooth="yes"/>
      <point x="117" y="-318" type="line"/>
    </contour>
    <contour>
      <point x="264" y="-192" type="curve" smooth="yes"/>
      <point x="299" y="-192"/>
      <point x="327" y="-175"/>
      <point x="356" y="-144" type="curve"/>
      <point x="376" y="-50" type="line"/>
      <point x="321" y="-112"/>
      <point x="286" y="-137"/>
      <point x="252" y="-137" type="curve" smooth="yes"/>
      <point x="221" y="-137"/>
      <point x="205" y="-116"/>
      <point x="205" y="-86" type="curve" smooth="yes"/>
      <point x="205" y="-47"/>
      <point x="233" y="-20"/>
      <point x="272" y="-20" type="curve" smooth="yes"/>
      <point x="309" y="-20"/>
      <point x="351" y="-45"/>
      <point x="360" y="-74" type="curve"/>
      <point x="375" y="-40" type="line"/>
      <point x="360" y="10"/>
      <point x="308" y="43"/>
      <point x="258" y="43" type="curve" smooth="yes"/>
      <point x="197" y="43"/>
      <point x="150" y="-4"/>
      <point x="150" y="-68" type="curve" smooth="yes"/>
      <point x="150" y="-134"/>
      <point x="199" y="-192"/>
    </contour>
    <contour>
      <point x="383" y="-310" type="line"/>
      <point x="472" y="162" type="line"/>
      <point x="391" y="109" type="line"/>
      <point x="318" y="-258" type="line"/>
      <point x="374" y="-310" type="line"/>
    </contour>
    <contour>
      <point x="710" y="545" type="line"/>
      <point x="712" y="555" type="line"/>
      <point x="680" y="620" type="line"/>
      <point x="33" y="620" type="line"/>
      <point x="31" y="610" type="line"/>
      <point x="63" y="545" type="line"/>
    </contour>
    <contour>
      <point x="318" y="80" type="curve" smooth="yes"/>
      <point x="447" y="80"/>
      <point x="495" y="139"/>
      <point x="495" y="202" type="curve" smooth="yes"/>
      <point x="495" y="268"/>
      <point x="432" y="335"/>
      <point x="383" y="335" type="curve" smooth="yes"/>
      <point x="351" y="335"/>
      <point x="259" y="313"/>
      <point x="235" y="313" type="curve" smooth="yes"/>
      <point x="217" y="313"/>
      <point x="200" y="331"/>
      <point x="200" y="357" type="curve" smooth="yes"/>
      <point x="200" y="395"/>
      <point x="226" y="410"/>
      <point x="274" y="410" type="curve" smooth="yes"/>
      <point x="465" y="410" type="line"/>
      <point x="479" y="418" type="line"/>
      <point x="489" y="469"/>
      <point x="499" y="523"/>
      <point x="510" y="583" type="curve"/>
      <point x="430" y="583" type="line"/>
      <point x="410" y="482" type="line"/>
      <point x="263" y="482" type="line" smooth="yes"/>
      <point x="169" y="482"/>
      <point x="135" y="447"/>
      <point x="135" y="388" type="curve" smooth="yes"/>
      <point x="135" y="319"/>
      <point x="208" y="243"/>
      <point x="266" y="243" type="curve" smooth="yes"/>
      <point x="300" y="243"/>
      <point x="369" y="264"/>
      <point x="405" y="264" type="curve" smooth="yes"/>
      <point x="424" y="264"/>
      <point x="433" y="255"/>
      <point x="433" y="237" type="curve" smooth="yes"/>
      <point x="433" y="201"/>
      <point x="404" y="152"/>
      <point x="300" y="152" type="curve" smooth="yes"/>
      <point x="174" y="152"/>
      <point x="122" y="210"/>
      <point x="84" y="305" type="curve"/>
      <point x="49" y="289" type="line"/>
      <point x="91" y="162"/>
      <point x="190" y="80"/>
    </contour>
    <contour>
      <point x="630" y="354" type="line"/>
      <point x="569" y="424" type="line"/>
      <point x="491" y="356" type="line"/>
      <point x="552" y="286" type="line"/>
    </contour>
  </outline>
</glyph>
<glyph name="dNn.half" format="2">
  <advance width="466"/>
  <outline>
    <contour>
      <point x="397" y="582" type="line"/>
      <point x="347" y="326" type="line" smooth="yes"/>
      <point x="332" y="249"/>
      <point x="289" y="223"/>
      <point x="235" y="223" type="curve" smooth="yes"/>
      <point x="200" y="223"/>
      <point x="171" y="239"/>
      <point x="171" y="282" type="curve" smooth="yes"/>
      <point x="171" y="293"/>
      <point x="172" y="304"/>
      <point x="174" y="315" type="curve" smooth="yes"/>
      <point x="224" y="582" type="line"/>
      <point x="139" y="582" type="line"/>
      <point x="127" y="520"/>
      <point x="110" y="439"/>
      <point x="100" y="386" type="curve" smooth="yes"/>
      <point x="94" y="354"/>
      <point x="92" y="343"/>
      <point x="92" y="332" type="curve" smooth="yes"/>
      <point x="92" y="264"/>
      <point x="164" y="158"/>
      <point x="268" y="158" type="curve" smooth="yes"/>
      <point x="353" y="158"/>
      <point x="409" y="216"/>
      <point x="426" y="302" type="curve" smooth="yes"/>
      <point x="480" y="582" type="line"/>
    </contour>
    <contour>
      <point x="629" y="545" type="line"/>
      <point x="631" y="555" type="line"/>
      <point x="600" y="620" type="line"/>
      <point x="34" y="620" type="line"/>
      <point x="32" y="610" type="line"/>
      <point x="63" y="545" type="line"/>
    </contour>
  </outline>
</glyph>
<glyph name="dP.half" format="2">
  <advance width="311"/>
  <outline>
    <contour>
      <point x="266" y="168" type="curve" smooth="yes"/>
      <point x="313" y="168"/>
      <point x="365" y="186"/>
      <point x="417" y="225" type="curve"/>
      <point x="394" y="305" type="line"/>
      <point x="315" y="249"/>
      <point x="265" y="233"/>
      <point x="232" y="233" type="curve" smooth="yes"/>
      <point x="200" y="233"/>
      <point x="173" y="253"/>
      <point x="173" y="300" type="curve" smooth="yes"/>
      <point x="173" y="309"/>
      <point x="174" y="319"/>
      <point x="176" y="330" type="curve" smooth="yes"/>
      <point x="223" y="582" type="line"/>
      <point x="139" y="582" type="line"/>
      <point x="126" y="519"/>
      <point x="111" y="449"/>
      <point x="101" y="396" type="curve" smooth="yes"/>
      <point x="95" y="364"/>
      <point x="93" y="352"/>
      <point x="93" y="343" type="curve" smooth="yes"/>
      <point x="93" y="275"/>
      <point x="171" y="168"/>
    </contour>
    <contour>
      <point x="468" y="545" type="line"/>
      <point x="470" y="555" type="line"/>
      <point x="439" y="620" type="line"/>
      <point x="34" y="620" type="line"/>
      <point x="32" y="610" type="line"/>
      <point x="63" y="545" type="line"/>
    </contour>
  </outline>
</glyph>
<glyph name="dPPha" format="2">
  <advance width="1060"/>
  <outline>
    <contour>
      <point x="907" y="60" type="line"/>
      <point x="979" y="130"/>
      <point x="1014" y="185"/>
      <point x="1014" y="264" type="curve" smooth="yes"/>
      <point x="1014" y="362"/>
      <point x="935" y="421"/>
      <point x="891" y="421" type="curve" smooth="yes"/>
      <point x="848" y="421"/>
      <point x="775" y="378"/>
      <point x="709" y="335" type="curve" smooth="yes"/>
      <point x="607" y="269"/>
      <point x="557" y="233"/>
      <point x="512" y="233" type="curve" smooth="yes"/>
      <point x="487" y="233"/>
      <point x="461" y="252"/>
      <point x="461" y="295" type="curve" smooth="yes"/>
      <point x="461" y="303"/>
      <point x="462" y="312"/>
      <point x="464" y="322" type="curve" smooth="yes"/>
      <point x="515" y="593" type="line"/>
      <point x="430" y="593" type="line"/>
      <point x="418" y="532"/>
      <point x="400" y="444"/>
      <point x="390" y="393" type="curve" smooth="yes"/>
      <point x="387" y="378"/>
      <point x="382" y="354"/>
      <point x="382" y="330" type="curve" smooth="yes"/>
      <point x="382" y="257"/>
      <point x="465" y="165"/>
      <point x="551" y="165" type="curve" smooth="yes"/>
      <point x="602" y="165"/>
      <point x="641" y="195"/>
      <point x="689" y="227" type="curve" smooth="yes"/>
      <point x="769" y="280"/>
      <point x="870" y="346"/>
      <point x="914" y="346" type="curve" smooth="yes"/>
      <point x="939" y="346"/>
      <point x="958" y="328"/>
      <point x="958" y="301" type="curve" smooth="yes"/>
      <point x="958" y="251"/>
      <point x="903" y="180"/>
      <point x="840" y="121" type="curve"/>
      <point x="899" y="60" type="line"/>
    </contour>
    <contour>
      <point x="689" y="-10" type="line"/>
      <point x="804" y="593" type="line"/>
      <point x="721" y="593" type="line"/>
      <point x="612" y="54" type="line"/>
      <point x="679" y="-10" type="line"/>
    </contour>
    <contour>
      <point x="1145" y="545" type="line"/>
      <point x="1147" y="555" type="line"/>
      <point x="1116" y="620" type="line"/>
      <point x="34" y="620" type="line"/>
      <point x="32" y="610" type="line"/>
      <point x="63" y="545" type="line"/>
    </contour>
    <contour>
      <point x="141" y="593" type="line"/>
      <point x="128" y="528"/>
      <point x="112" y="454"/>
      <point x="102" y="401" type="curve" smooth="yes"/>
      <point x="96" y="369"/>
      <point x="93" y="352"/>
      <point x="93" y="348" type="curve" smooth="yes"/>
      <point x="93" y="280"/>
      <point x="174" y="174"/>
      <point x="270" y="174" type="curve" smooth="yes"/>
      <point x="324" y="174"/>
      <point x="371" y="195"/>
      <point x="439" y="247" type="curve"/>
      <point x="403" y="315" type="line"/>
      <point x="327" y="258"/>
      <point x="269" y="238"/>
      <point x="232" y="238" type="curve" smooth="yes"/>
      <point x="201" y="238"/>
      <point x="174" y="258"/>
      <point x="174" y="303" type="curve" smooth="yes"/>
      <point x="174" y="311"/>
      <point x="175" y="320"/>
      <point x="177" y="330" type="curve" smooth="yes"/>
      <point x="226" y="593" type="line"/>
    </contour>
  </outline>
</glyph>
<glyph name="dPRa" format="2">
  <advance width="569"/>
  <outline>
    <contour>
      <point x="431" y="-10" type="line"/>
      <point x="546" y="591" type="line"/>
      <point x="462" y="591" type="line"/>
      <point x="353" y="52" type="line"/>
      <point x="421" y="-10" type="line"/>
    </contour>
    <contour>
      <point x="654" y="545" type="line"/>
      <point x="656" y="555" type="line"/>
      <point x="624" y="620" type="line"/>
      <point x="33" y="620" type="line"/>
      <point x="31" y="610" type="line"/>
      <point x="63" y="545" type="line"/>
    </contour>
    <contour>
      <point x="148" y="583" type="line"/>
      <point x="135" y="518"/>
      <point x="122" y="454"/>
      <point x="112" y="401" type="curve" smooth="yes"/>
      <point x="106" y="369"/>
      <point x="103" y="352"/>
      <point x="103" y="348" type="curve" smooth="yes"/>
      <point x="103" y="280"/>
      <point x="184" y="180"/>
      <point x="278" y="180" type="curve"/>
      <point x="449" y="253" type="line"/>
      <point x="413" y="321" type="line"/>
      <point x="337" y="264"/>
      <point x="279" y="244"/>
      <point x="242" y="244" type="curve" smooth="yes"/>
      <point x="205" y="244"/>
      <point x="175" y="271"/>
      <point x="187" y="335" type="curve" smooth="yes"/>
      <point x="233" y="583" type="line"/>
    </contour>
    <contour>
      <point x="402" y="228" type="line"/>
      <point x="414" y="293" type="line"/>
      <point x="219" y="204" type="line"/>
      <point x="30" y="89" type="line"/>
      <point x="79" y="28" type="line"/>
    </contour>
  </outline>
</glyph>
<glyph name="dSCa" format="2">
  <advance width="1006"/>
  <outline>
    <contour>
      <point x="791" y="52" type="line"/>
      <point x="858" y="-10" type="line"/>
      <point x="868" y="-10" type="line"/>
      <point x="981" y="581" type="line"/>
      <point x="897" y="581" type="line"/>
    </contour>
    <contour>
      <point x="264" y="-20" type="line"/>
      <point x="318" y="19" type="line"/>
      <point x="151" y="237" type="line"/>
      <point x="210" y="247"/>
      <point x="247" y="276"/>
      <point x="270" y="322" type="curve" smooth="yes"/>
      <point x="304" y="390"/>
      <point x="323" y="477"/>
      <point x="333" y="569" type="curve"/>
      <point x="250" y="569" type="line"/>
      <point x="246" y="545"/>
      <point x="244" y="523"/>
      <point x="236" y="482" type="curve" smooth="yes"/>
      <point x="230" y="449"/>
      <point x="218" y="398"/>
      <point x="203" y="366" type="curve"/>
      <point x="179" y="370"/>
      <point x="140" y="374"/>
      <point x="118" y="374" type="curve" smooth="yes"/>
      <point x="76" y="374"/>
      <point x="62" y="360"/>
      <point x="62" y="331" type="curve" smooth="yes"/>
      <point x="62" y="305"/>
      <point x="76" y="265"/>
      <point x="110" y="211" type="curve" smooth="yes"/>
      <point x="254" y="-20" type="line"/>
    </contour>
    <contour>
      <point x="418" y="218" type="curve" smooth="yes"/>
      <point x="451" y="218"/>
      <point x="488" y="227"/>
      <point x="515" y="244" type="curve"/>
      <point x="511" y="325" type="line"/>
      <point x="473" y="304"/>
      <point x="437" y="295"/>
      <point x="405" y="295" type="curve" smooth="yes"/>
      <point x="357" y="295"/>
      <point x="295" y="316"/>
      <point x="270" y="337" type="curve"/>
      <point x="242" y="307" type="line"/>
      <point x="312" y="235"/>
      <point x="374" y="218"/>
    </contour>
    <contour>
      <point x="536" y="370" type="line"/>
      <point x="720" y="385" type="line"/>
      <point x="756" y="373" type="line"/>
      <point x="770" y="373"/>
      <point x="776" y="373"/>
      <point x="798" y="372" type="curve"/>
      <point x="800" y="382" type="line"/>
      <point x="769" y="446" type="line"/>
      <point x="400" y="446" type="line"/>
      <point x="398" y="436" type="line"/>
      <point x="430" y="370" type="line"/>
    </contour>
    <contour>
      <point x="1091" y="545" type="line"/>
      <point x="1093" y="555" type="line"/>
      <point x="1062" y="620" type="line"/>
      <point x="34" y="620" type="line"/>
      <point x="32" y="610" type="line"/>
      <point x="63" y="545" type="line"/>
    </contour>
    <contour>
      <point x="669" y="128" type="curve" smooth="yes"/>
      <point x="732" y="128"/>
      <point x="770" y="148"/>
      <point x="839" y="195" type="curve"/>
      <point x="862" y="301" type="line"/>
      <point x="740" y="212"/>
      <point x="688" y="192"/>
      <point x="641" y="192" type="curve" smooth="yes"/>
      <point x="597" y="192"/>
      <point x="554" y="212"/>
      <point x="554" y="270" type="curve" smooth="yes"/>
      <point x="554" y="351"/>
      <point x="659" y="373"/>
      <point x="757" y="373" type="curve"/>
      <point x="764" y="409" type="line"/>
      <point x="559" y="409" type="line"/>
      <point x="508" y="371"/>
      <point x="488" y="335"/>
      <point x="488" y="287" type="curve" smooth="yes"/>
      <point x="488" y="216"/>
      <point x="548" y="128"/>
    </contour>
  </outline>
</glyph>
<glyph name="dSMYa" format="2">
  <advance width="1267"/>
  <outline>
    <component base="dYa" xOffset="685"/>
    <contour>
      <point x="805" y="545" type="line"/>
      <point x="807" y="555" type="line"/>
      <point x="776" y="620" type="line"/>
      <point x="34" y="620" type="line"/>
      <point x="32" y="610" type="line"/>
      <point x="63" y="545" type="line"/>
    </contour>
    <contour>
      <point x="414" y="220" type="curve" smooth="yes"/>
      <point x="442" y="220"/>
      <point x="479" y="229"/>
      <point x="508" y="242" type="curve"/>
      <point x="508" y="319" type="line"/>
      <point x="474" y="303"/>
      <point x="438" y="297"/>
      <point x="403" y="297" type="curve" smooth="yes"/>
      <point x="351" y="297"/>
      <point x="302" y="311"/>
      <point x="269" y="341" type="curve"/>
      <point x="245" y="306" type="line"/>
      <point x="291" y="254"/>
      <point x="349" y="220"/>
    </contour>
    <contour>
      <point x="520" y="141" type="curve" smooth="yes"/>
      <point x="535" y="141"/>
      <point x="546" y="149"/>
      <point x="549" y="166" type="curve" smooth="yes"/>
      <point x="628" y="581" type="line"/>
      <point x="545" y="581" type="line"/>
      <point x="478" y="238" type="line"/>
      <point x="798" y="238" type="line"/>
      <point x="793" y="313" type="line"/>
      <point x="536" y="313" type="line"/>
      <point x="423" y="235" type="line"/>
      <point x="442" y="190"/>
      <point x="490" y="141"/>
    </contour>
    <contour>
      <point x="264" y="-20" type="line"/>
      <point x="319" y="19" type="line"/>
      <point x="143" y="246" type="line"/>
      <point x="143" y="235" type="line"/>
      <point x="196" y="244"/>
      <point x="233" y="256"/>
      <point x="265" y="314" type="curve" smooth="yes"/>
      <point x="284" y="348"/>
      <point x="302" y="401"/>
      <point x="316" y="472" type="curve" smooth="yes"/>
      <point x="320" y="494"/>
      <point x="329" y="548"/>
      <point x="330" y="567" type="curve"/>
      <point x="250" y="567" type="line"/>
      <point x="247" y="549"/>
      <point x="245" y="529"/>
      <point x="237" y="487" type="curve" smooth="yes"/>
      <point x="230" y="450"/>
      <point x="219" y="401"/>
      <point x="203" y="368" type="curve"/>
      <point x="215" y="367" type="line"/>
      <point x="195" y="370"/>
      <point x="148" y="374"/>
      <point x="120" y="374" type="curve" smooth="yes"/>
      <point x="79" y="374"/>
      <point x="62" y="362"/>
      <point x="62" y="333" type="curve" smooth="yes"/>
      <point x="62" y="301"/>
      <point x="75" y="264"/>
      <point x="111" y="207" type="curve" smooth="yes"/>
      <point x="253" y="-20" type="line"/>
    </contour>
  </outline>
</glyph>
<glyph name="dShRa" format="2">
  <advance width="679"/>
  <outline>
    <contour>
      <point x="554" y="271" type="line"/>
      <point x="466" y="300" type="line"/>
      <point x="153" y="118" type="line"/>
      <point x="199" y="55" type="line"/>
    </contour>
    <contour>
      <point x="540" y="-15" type="line"/>
      <point x="654" y="581" type="line"/>
      <point x="570" y="581" type="line"/>
      <point x="462" y="47" type="line"/>
      <point x="530" y="-15" type="line"/>
    </contour>
    <contour>
      <point x="764" y="545" type="line"/>
      <point x="766" y="555" type="line"/>
      <point x="734" y="620" type="line"/>
      <point x="447" y="620" type="line"/>
      <point x="445" y="610" type="line"/>
      <point x="477" y="545" type="line"/>
    </contour>
    <contour>
      <point x="87" y="203" type="line"/>
      <point x="180" y="251"/>
      <point x="242" y="281"/>
      <point x="297" y="315" type="curve" smooth="yes"/>
      <point x="386" y="371"/>
      <point x="430" y="412"/>
      <point x="430" y="480" type="curve" smooth="yes"/>
      <point x="430" y="559"/>
      <point x="355" y="633"/>
      <point x="272" y="633" type="curve" smooth="yes"/>
      <point x="190" y="633"/>
      <point x="132" y="578"/>
      <point x="132" y="508" type="curve" smooth="yes"/>
      <point x="132" y="370"/>
      <point x="369" y="270"/>
      <point x="542" y="254" type="curve"/>
      <point x="554" y="311" type="line"/>
      <point x="401" y="319"/>
      <point x="203" y="376"/>
      <point x="203" y="479" type="curve" smooth="yes"/>
      <point x="203" y="532"/>
      <point x="253" y="567"/>
      <point x="303" y="567" type="curve" smooth="yes"/>
      <point x="342" y="567"/>
      <point x="368" y="543"/>
      <point x="368" y="510" type="curve" smooth="yes"/>
      <point x="368" y="460"/>
      <point x="329" y="430"/>
      <point x="242" y="378" type="curve" smooth="yes"/>
      <point x="178" y="340"/>
      <point x="116" y="311"/>
      <point x="33" y="273" type="curve"/>
    </contour>
  </outline>
</glyph>
<glyph name="dSha_dSignVocalicR.ss03" format="2">
  <advance width="701"/>
  <outline>
    <component base="dSh.half"/>
    <contour>
      <point x="517" y="-231" type="curve" smooth="yes"/>
      <point x="576" y="-231"/>
      <point x="627" y="-208"/>
      <point x="650" y="-192" type="curve"/>
      <point x="614" y="-129" type="line"/>
      <point x="561" y="-158"/>
      <point x="519" y="-167"/>
      <point x="488" y="-167" type="curve" smooth="yes"/>
      <point x="439" y="-167"/>
      <point x="427" y="-147"/>
      <point x="427" y="-128" type="curve" smooth="yes"/>
      <point x="427" y="-97"/>
      <point x="465" y="-54"/>
      <point x="580" y="-45" type="curve"/>
      <point x="581" y="-39" type="line"/>
      <point x="548" y="19" type="line"/>
      <point x="441" y="16"/>
      <point x="368" y="-28"/>
      <point x="368" y="-103" type="curve" smooth="yes"/>
      <point x="368" y="-152"/>
      <point x="409" y="-231"/>
    </contour>
    <contour>
      <point x="676" y="581" type="line"/>
      <point x="592" y="581" type="line"/>
      <point x="467" y="-37" type="line"/>
      <point x="557" y="-37" type="line"/>
    </contour>
    <contour>
      <point x="786" y="545" type="line"/>
      <point x="787" y="555" type="line"/>
      <point x="756" y="620" type="line"/>
      <point x="447" y="620" type="line"/>
      <point x="445" y="610" type="line"/>
      <point x="477" y="545" type="line"/>
    </contour>
  </outline>
</glyph>
<glyph name="dSignCandraERephAnusvara" format="2">
  <outline>
    <contour>
      <point x="-33" y="608" type="line"/>
      <point x="-66" y="656"/>
      <point x="-83" y="694"/>
      <point x="-83" y="735" type="curve" smooth="yes"/>
      <point x="-83" y="786"/>
      <point x="-55" y="840"/>
      <point x="21" y="840" type="curve" smooth="yes"/>
      <point x="49" y="840"/>
      <point x="75" y="833"/>
      <point x="95" y="824" type="curve"/>
      <point x="100" y="830" type="line"/>
      <point x="92" y="878"/>
      <point x="46" y="911"/>
      <point x="-12" y="911" type="curve" smooth="yes"/>
      <point x="-98" y="911"/>
      <point x="-145" y="845"/>
      <point x="-145" y="763" type="curve" smooth="yes"/>
      <point x="-145" y="712"/>
      <point x="-125" y="652"/>
      <point x="-85" y="608" type="curve"/>
    </contour>
    <contour>
      <point x="-249" y="671" type="curve" smooth="yes"/>
      <point x="-212" y="671"/>
      <point x="-167" y="684"/>
      <point x="-125" y="724" type="curve"/>
      <point x="-123" y="839" type="line"/>
      <point x="-155" y="790"/>
      <point x="-199" y="737"/>
      <point x="-260" y="737" type="curve" smooth="yes"/>
      <point x="-307" y="737"/>
      <point x="-352" y="766"/>
      <point x="-381" y="852" type="curve"/>
      <point x="-415" y="835" type="line"/>
      <point x="-387" y="730"/>
      <point x="-337" y="671"/>
    </contour>
    <contour>
      <point x="83" y="737" type="line"/>
      <point x="30" y="800" type="line"/>
      <point x="-40" y="741" type="line"/>
      <point x="13" y="678" type="line"/>
    </contour>
  </outline>
</glyph>
<glyph name="dSignI.W" format="2">
  <advance width="267"/>
  <outline>
    <contour>
      <point x="237" y="594" type="line"/>
      <point x="224" y="622"/>
      <point x="220" y="648"/>
      <point x="220" y="669" type="curve" smooth="yes"/>
      <point x="220" y="761"/>
      <point x="300" y="807"/>
      <point x="445" y="807" type="curve" smooth="yes"/>
      <point x="628" y="807"/>
      <point x="836" y="738"/>
      <point x="994" y="646" type="curve"/>
      <point x="1018" y="678" type="line"/>
      <point x="785" y="829"/>
      <point x="566" y="884"/>
      <point x="413" y="884" type="curve" smooth="yes"/>
      <point x="245" y="884"/>
      <point x="151" y="818"/>
      <point x="151" y="707" type="curve" smooth="yes"/>
      <point x="151" y="665"/>
      <point x="161" y="635"/>
      <point x="184" y="594" type="curve"/>
    </contour>
    <contour>
      <point x="129" y="-15" type="line"/>
      <point x="239" y="566" type="line"/>
      <point x="155" y="566" type="line"/>
      <point x="51" y="47" type="line"/>
      <point x="119" y="-15" type="line"/>
    </contour>
    <contour>
      <point x="352" y="545" type="line"/>
      <point x="354" y="555" type="line"/>
      <point x="323" y="620" type="line"/>
      <point x="34" y="620" type="line"/>
      <point x="32" y="610" type="line"/>
      <point x="63" y="545" type="line"/>
    </contour>
  </outline>
</glyph>
<glyph name="dSignIiRephAnusvara" format="2">
  <advance width="267"/>
  <outline>
    <contour>
      <point x="128" y="-15" type="line"/>
      <point x="238" y="561" type="line"/>
      <point x="154" y="561" type="line"/>
      <point x="50" y="47" type="line"/>
      <point x="118" y="-15" type="line"/>
    </contour>
    <contour>
      <point x="352" y="545" type="line"/>
      <point x="354" y="555" type="line"/>
      <point x="322" y="620" type="line"/>
      <point x="33" y="620" type="line"/>
      <point x="31" y="610" type="line"/>
      <point x="63" y="545" type="line"/>
    </contour>
    <contour>
      <point x="352" y="545" type="line"/>
      <point x="354" y="555" type="line"/>
      <point x="322" y="620" type="line"/>
      <point x="33" y="620" type="line"/>
      <point x="31" y="610" type="line"/>
      <point x="63" y="545" type="line"/>
    </contour>
    <contour>
      <point x="238" y="600" type="line"/>
      <point x="242" y="772"/>
      <point x="161" y="880"/>
      <point x="32" y="880" type="curve" smooth="yes"/>
      <point x="-66" y="880"/>
      <point x="-119" y="813"/>
      <point x="-119" y="737" type="curve" smooth="yes"/>
      <point x="-119" y="706"/>
      <point x="-109" y="668"/>
      <point x="-89" y="642" type="curve"/>
      <point x="-58" y="658" type="line"/>
      <point x="-61" y="670"/>
      <point x="-63" y="686"/>
      <point x="-63" y="698" type="curve" smooth="yes"/>
      <point x="-63" y="756"/>
      <point x="-20" y="803"/>
      <point x="57" y="803" type="curve" smooth="yes"/>
      <point x="125" y="803"/>
      <point x="174" y="763"/>
      <point x="174" y="666" type="curve" smooth="yes"/>
      <point x="174" y="645"/>
      <point x="172" y="622"/>
      <point x="167" y="595" type="curve"/>
    </contour>
    <contour>
      <point x="232" y="688" type="line"/>
      <point x="230" y="698"/>
      <point x="229" y="712"/>
      <point x="229" y="720" type="curve" smooth="yes"/>
      <point x="229" y="792"/>
      <point x="266" y="848"/>
      <point x="340" y="848" type="curve" smooth="yes"/>
      <point x="366" y="848"/>
      <point x="391" y="842"/>
      <point x="415" y="830" type="curve"/>
      <point x="420" y="836" type="line"/>
      <point x="408" y="878"/>
      <point x="368" y="916"/>
      <point x="314" y="916" type="curve" smooth="yes"/>
      <point x="255" y="916"/>
      <point x="199" y="868"/>
      <point x="198" y="788" type="curve"/>
      <point x="176" y="783" type="line"/>
    </contour>
    <contour>
      <point x="401" y="737" type="line"/>
      <point x="348" y="800" type="line"/>
      <point x="278" y="741" type="line"/>
      <point x="331" y="678" type="line"/>
    </contour>
  </outline>
</glyph>
<glyph name="dSsTtVa" format="2">
  <advance width="575"/>
  <outline>
    <contour>
      <point x="285" y="-74" type="curve" smooth="yes"/>
      <point x="349" y="-74"/>
      <point x="413" y="-51"/>
      <point x="485" y="12" type="curve"/>
      <point x="432" y="74" type="line"/>
      <point x="373" y="27"/>
      <point x="318" y="-2"/>
      <point x="235" y="-2" type="curve" smooth="yes"/>
      <point x="165" y="-2"/>
      <point x="127" y="22"/>
      <point x="127" y="71" type="curve" smooth="yes"/>
      <point x="127" y="145"/>
      <point x="192" y="160"/>
      <point x="302" y="189" type="curve" smooth="yes"/>
      <point x="420" y="220"/>
      <point x="489" y="253"/>
      <point x="508" y="365" type="curve" smooth="yes"/>
      <point x="524" y="460"/>
      <point x="539" y="520"/>
      <point x="549" y="580" type="curve"/>
      <point x="467" y="580" type="line"/>
      <point x="426" y="375" type="line" smooth="yes"/>
      <point x="417" y="331"/>
      <point x="410" y="323"/>
      <point x="395" y="309" type="curve" smooth="yes"/>
      <point x="368" y="285"/>
      <point x="287" y="261"/>
      <point x="256" y="261" type="curve" smooth="yes"/>
      <point x="225" y="261"/>
      <point x="196" y="273"/>
      <point x="196" y="319" type="curve" smooth="yes"/>
      <point x="196" y="328"/>
      <point x="197" y="337"/>
      <point x="199" y="347" type="curve" smooth="yes"/>
      <point x="240" y="569" type="line"/>
      <point x="156" y="569" type="line"/>
      <point x="135" y="466"/>
      <point x="121" y="405"/>
      <point x="121" y="364" type="curve" smooth="yes"/>
      <point x="121" y="319"/>
      <point x="141" y="267"/>
      <point x="202" y="227" type="curve"/>
      <point x="200" y="242" type="line"/>
      <point x="109" y="212"/>
      <point x="58" y="188"/>
      <point x="58" y="106" type="curve" smooth="yes"/>
      <point x="58" y="6"/>
      <point x="164" y="-74"/>
    </contour>
    <contour>
      <point x="225" y="-253" type="curve" smooth="yes"/>
      <point x="259" y="-253"/>
      <point x="284" y="-246"/>
      <point x="317" y="-228" type="curve"/>
      <point x="337" y="-138" type="line"/>
      <point x="280" y="-176"/>
      <point x="235" y="-195"/>
      <point x="192" y="-195" type="curve" smooth="yes"/>
      <point x="163" y="-195"/>
      <point x="134" y="-184"/>
      <point x="134" y="-148" type="curve" smooth="yes"/>
      <point x="134" y="-108"/>
      <point x="168" y="-73"/>
      <point x="220" y="-55" type="curve"/>
      <point x="139" y="-15" type="line"/>
      <point x="92" y="-45"/>
      <point x="72" y="-80"/>
      <point x="72" y="-122" type="curve" smooth="yes"/>
      <point x="72" y="-197"/>
      <point x="147" y="-253"/>
    </contour>
    <contour>
      <point x="360" y="-331" type="line"/>
      <point x="419" y="-18" type="line"/>
      <point x="340" y="-51" type="line"/>
      <point x="310" y="-189" type="line"/>
      <point x="292" y="-278" type="line"/>
      <point x="351" y="-331" type="line"/>
    </contour>
    <contour>
      <point x="660" y="545" type="line"/>
      <point x="662" y="555" type="line"/>
      <point x="631" y="620" type="line"/>
      <point x="34" y="620" type="line"/>
      <point x="32" y="610" type="line"/>
      <point x="63" y="545" type="line"/>
    </contour>
    <contour>
      <point x="435" y="309" type="line"/>
      <point x="226" y="563" type="line"/>
      <point x="179" y="545" type="line"/>
      <point x="396" y="282" type="line"/>
    </contour>
  </outline>
</glyph>
<glyph name="dT.half2" format="2">
  <advance width="288"/>
  <outline>
    <contour>
      <point x="445" y="545" type="line"/>
      <point x="447" y="555" type="line"/>
      <point x="416" y="620" type="line"/>
      <point x="34" y="620" type="line"/>
      <point x="32" y="610" type="line"/>
      <point x="63" y="545" type="line"/>
    </contour>
    <contour>
      <point x="417" y="362" type="line"/>
      <point x="339" y="408"/>
      <point x="285" y="428"/>
      <point x="225" y="428" type="curve" smooth="yes"/>
      <point x="107" y="428"/>
      <point x="53" y="355"/>
      <point x="53" y="275" type="curve" smooth="yes"/>
      <point x="53" y="191"/>
      <point x="100" y="96"/>
      <point x="162" y="-10" type="curve"/>
      <point x="172" y="-10" type="line"/>
      <point x="218" y="22" type="line"/>
      <point x="151" y="131"/>
      <point x="120" y="177"/>
      <point x="120" y="232" type="curve" smooth="yes"/>
      <point x="120" y="295"/>
      <point x="160" y="355"/>
      <point x="259" y="355" type="curve" smooth="yes"/>
      <point x="301" y="355"/>
      <point x="343" y="341"/>
      <point x="393" y="315" type="curve"/>
    </contour>
  </outline>
</glyph>
<glyph name="dTCa" format="2">
  <advance width="896"/>
  <outline>
    <component base="dCa" xOffset="220"/>
    <contour>
      <point x="428" y="545" type="line"/>
      <point x="430" y="555" type="line"/>
      <point x="399" y="620" type="line"/>
      <point x="34" y="620" type="line"/>
      <point x="32" y="610" type="line"/>
      <point x="63" y="545" type="line"/>
    </contour>
    <contour>
      <point x="432" y="390" type="line"/>
      <point x="372" y="399"/>
      <point x="323" y="404"/>
      <point x="277" y="404" type="curve" smooth="yes"/>
      <point x="101" y="404"/>
      <point x="52" y="344"/>
      <point x="52" y="262" type="curve" smooth="yes"/>
      <point x="52" y="187"/>
      <point x="100" y="87"/>
      <point x="155" y="-10" type="curve"/>
      <point x="165" y="-10" type="line"/>
      <point x="212" y="23" type="line"/>
      <point x="133" y="136"/>
      <point x="120" y="178"/>
      <point x="120" y="220" type="curve" smooth="yes"/>
      <point x="120" y="290"/>
      <point x="169" y="335"/>
      <point x="290" y="335" type="curve" smooth="yes"/>
      <point x="422" y="335" type="line"/>
    </contour>
  </outline>
</glyph>
<glyph name="dTRa.alt" format="2">
  <advance width="623"/>
  <outline>
    <contour>
      <point x="489" y="307" type="line"/>
      <point x="508" y="411" type="line"/>
      <point x="220" y="199" type="line"/>
      <point x="273" y="141" type="line"/>
    </contour>
    <contour>
      <point x="485" y="-10" type="line"/>
      <point x="598" y="581" type="line"/>
      <point x="514" y="581" type="line"/>
      <point x="410" y="52" type="line"/>
      <point x="475" y="-10" type="line"/>
    </contour>
    <contour>
      <point x="708" y="545" type="line"/>
      <point x="710" y="555" type="line"/>
      <point x="679" y="620" type="line"/>
      <point x="34" y="620" type="line"/>
      <point x="32" y="610" type="line"/>
      <point x="63" y="545" type="line"/>
    </contour>
    <contour>
      <point x="172" y="-10" type="line"/>
      <point x="219" y="23" type="line"/>
      <point x="141" y="128"/>
      <point x="124" y="175"/>
      <point x="124" y="232" type="curve" smooth="yes"/>
      <point x="124" y="343"/>
      <point x="211" y="374"/>
      <point x="322" y="374" type="curve" smooth="yes"/>
      <point x="379" y="374"/>
      <point x="446" y="364"/>
      <point x="501" y="354" type="curve"/>
      <point x="499" y="433" type="line"/>
      <point x="446" y="441"/>
      <point x="374" y="449"/>
      <point x="314" y="449" type="curve" smooth="yes"/>
      <point x="175" y="449"/>
      <point x="56" y="408"/>
      <point x="56" y="269" type="curve" smooth="yes"/>
      <point x="56" y="185"/>
      <point x="98" y="100"/>
      <point x="162" y="-10" type="curve"/>
    </contour>
  </outline>
</glyph>
<glyph name="dTT.half" format="2">
  <advance width="381"/>
  <outline>
    <contour>
      <point x="281" y="-10" type="line"/>
      <point x="328" y="23" type="line"/>
      <point x="257" y="127"/>
      <point x="229" y="178"/>
      <point x="229" y="225" type="curve" smooth="yes"/>
      <point x="229" y="304"/>
      <point x="290" y="360"/>
      <point x="401" y="360" type="curve"/>
      <point x="405" y="391" type="line"/>
      <point x="230" y="391" type="line"/>
      <point x="178" y="359"/>
      <point x="163" y="328"/>
      <point x="163" y="272" type="curve" smooth="yes"/>
      <point x="163" y="194"/>
      <point x="210" y="96"/>
      <point x="271" y="-10" type="curve"/>
    </contour>
    <contour>
      <point x="534" y="360" type="line"/>
      <point x="550" y="435" type="line"/>
      <point x="53" y="435" type="line"/>
      <point x="51" y="425" type="line"/>
      <point x="83" y="360" type="line"/>
    </contour>
    <contour>
      <point x="538" y="545" type="line"/>
      <point x="540" y="555" type="line"/>
      <point x="509" y="620" type="line"/>
      <point x="34" y="620" type="line"/>
      <point x="32" y="610" type="line"/>
      <point x="63" y="545" type="line"/>
    </contour>
  </outline>
</glyph>
<glyph name="dTh.half" format="2">
  <advance width="405"/>
  <outline>
    <contour>
      <point x="328" y="133" type="curve" smooth="yes"/>
      <point x="383" y="133"/>
      <point x="447" y="154"/>
      <point x="514" y="217" type="curve"/>
      <point x="484" y="286" type="line"/>
      <point x="435" y="243"/>
      <point x="363" y="197"/>
      <point x="298" y="197" type="curve" smooth="yes"/>
      <point x="240" y="197"/>
      <point x="194" y="228"/>
      <point x="194" y="274" type="curve" smooth="yes"/>
      <point x="194" y="279"/>
      <point x="195" y="284"/>
      <point x="196" y="290" type="curve"/>
      <point x="319" y="325"/>
      <point x="406" y="368"/>
      <point x="406" y="468" type="curve" smooth="yes"/>
      <point x="406" y="545"/>
      <point x="345" y="633"/>
      <point x="245" y="633" type="curve" smooth="yes"/>
      <point x="160" y="633"/>
      <point x="104" y="585"/>
      <point x="104" y="516" type="curve" smooth="yes"/>
      <point x="104" y="466"/>
      <point x="138" y="419"/>
      <point x="196" y="419" type="curve" smooth="yes"/>
      <point x="202" y="419"/>
      <point x="209" y="420"/>
      <point x="214" y="421" type="curve"/>
      <point x="216" y="432" type="line"/>
      <point x="196" y="443"/>
      <point x="178" y="459"/>
      <point x="178" y="483" type="curve" smooth="yes"/>
      <point x="178" y="533"/>
      <point x="235" y="562"/>
      <point x="275" y="562" type="curve" smooth="yes"/>
      <point x="319" y="562"/>
      <point x="344" y="541"/>
      <point x="344" y="504" type="curve" smooth="yes"/>
      <point x="344" y="434"/>
      <point x="259" y="397"/>
      <point x="118" y="358" type="curve"/>
      <point x="120" y="243"/>
      <point x="196" y="133"/>
    </contour>
    <contour>
      <point x="562" y="545" type="line"/>
      <point x="564" y="555" type="line"/>
      <point x="533" y="620" type="line"/>
      <point x="435" y="620" type="line"/>
      <point x="433" y="610" type="line"/>
      <point x="464" y="545" type="line"/>
    </contour>
  </outline>
</glyph>
<glyph name="dThree.sups" format="2">
  <advance width="430"/>
  <outline>
    <contour>
      <point x="264" y="205" type="line"/>
      <point x="311" y="232" type="line"/>
      <point x="249" y="344" type="line"/>
      <point x="255" y="361" type="line"/>
      <point x="209" y="436"/>
      <point x="189" y="456"/>
      <point x="164" y="456" type="curve" smooth="yes"/>
      <point x="139" y="456"/>
      <point x="125" y="430"/>
      <point x="125" y="397" type="curve" smooth="yes"/>
      <point x="125" y="346"/>
      <point x="191" y="322"/>
      <point x="258" y="322" type="curve" smooth="yes"/>
      <point x="334" y="322"/>
      <point x="422" y="354"/>
      <point x="422" y="435" type="curve" smooth="yes"/>
      <point x="422" y="512"/>
      <point x="335" y="573"/>
      <point x="287" y="573" type="curve" smooth="yes"/>
      <point x="255" y="573"/>
      <point x="218" y="560"/>
      <point x="193" y="547" type="curve"/>
      <point x="217" y="487" type="line"/>
      <point x="241" y="498"/>
      <point x="282" y="509"/>
      <point x="310" y="509" type="curve" smooth="yes"/>
      <point x="340" y="509"/>
      <point x="361" y="495"/>
      <point x="361" y="463" type="curve" smooth="yes"/>
      <point x="361" y="414"/>
      <point x="315" y="377"/>
      <point x="219" y="385" type="curve"/>
      <point x="201" y="359" type="line"/>
      <point x="257" y="205" type="line"/>
    </contour>
    <contour>
      <point x="360" y="514" type="line"/>
      <point x="404" y="539"/>
      <point x="419" y="566"/>
      <point x="419" y="602" type="curve" smooth="yes"/>
      <point x="419" y="668"/>
      <point x="354" y="717"/>
      <point x="293" y="717" type="curve" smooth="yes"/>
      <point x="258" y="717"/>
      <point x="213" y="704"/>
      <point x="169" y="685" type="curve"/>
      <point x="194" y="621" type="line"/>
      <point x="238" y="641"/>
      <point x="288" y="655"/>
      <point x="322" y="655" type="curve" smooth="yes"/>
      <point x="347" y="655"/>
      <point x="364" y="647"/>
      <point x="364" y="626" type="curve" smooth="yes"/>
      <point x="364" y="597"/>
      <point x="334" y="573"/>
      <point x="302" y="559" type="curve"/>
    </contour>
  </outline>
</glyph>
<glyph name="dTtSa" format="2">
  <advance width="531"/>
  <outline>
    <contour>
      <point x="288" y="89" type="curve" smooth="yes"/>
      <point x="357" y="89"/>
      <point x="435" y="126"/>
      <point x="492" y="180" type="curve"/>
      <point x="442" y="245" type="line"/>
      <point x="384" y="197"/>
      <point x="326" y="162"/>
      <point x="253" y="162" type="curve" smooth="yes"/>
      <point x="185" y="162"/>
      <point x="129" y="194"/>
      <point x="129" y="259" type="curve" smooth="yes"/>
      <point x="129" y="329"/>
      <point x="189" y="381"/>
      <point x="292" y="381" type="curve" smooth="yes"/>
      <point x="420" y="381" type="line"/>
      <point x="433" y="389" type="line"/>
      <point x="443" y="438"/>
      <point x="462" y="542"/>
      <point x="470" y="590" type="curve"/>
      <point x="389" y="590" type="line"/>
      <point x="363" y="455" type="line"/>
      <point x="291" y="455" type="line" smooth="yes"/>
      <point x="146" y="455"/>
      <point x="61" y="410"/>
      <point x="61" y="302" type="curve" smooth="yes"/>
      <point x="61" y="198"/>
      <point x="153" y="89"/>
    </contour>
    <contour>
      <point x="133" y="-319" type="line"/>
      <point x="178" y="-287" type="line"/>
      <point x="31" y="-94" type="line"/>
      <point x="31" y="-104" type="line"/>
      <point x="119" y="-98"/>
      <point x="154" y="-26"/>
      <point x="175" y="82" type="curve" smooth="yes"/>
      <point x="178" y="100"/>
      <point x="182" y="127"/>
      <point x="183" y="143" type="curve"/>
      <point x="120" y="163" type="line"/>
      <point x="118" y="144"/>
      <point x="114" y="125"/>
      <point x="110" y="104" type="curve" smooth="yes"/>
      <point x="101" y="58"/>
      <point x="91" y="14"/>
      <point x="82" y="2" type="curve"/>
      <point x="94" y="5" type="line"/>
      <point x="79" y="10"/>
      <point x="34" y="11"/>
      <point x="17" y="11" type="curve" smooth="yes"/>
      <point x="-22" y="11"/>
      <point x="-32" y="1"/>
      <point x="-32" y="-26" type="curve" smooth="yes"/>
      <point x="-32" y="-49"/>
      <point x="-22" y="-83"/>
      <point x="4" y="-125" type="curve" smooth="yes"/>
      <point x="124" y="-319" type="line"/>
    </contour>
    <contour>
      <point x="257" y="-111" type="curve" smooth="yes"/>
      <point x="279" y="-111"/>
      <point x="304" y="-107"/>
      <point x="333" y="-96" type="curve"/>
      <point x="351" y="-2" type="line"/>
      <point x="316" y="-34"/>
      <point x="278" y="-46"/>
      <point x="237" y="-46" type="curve" smooth="yes"/>
      <point x="200" y="-46"/>
      <point x="165" y="-37"/>
      <point x="136" y="-18" type="curve"/>
      <point x="116" y="-44" type="line"/>
      <point x="158" y="-90"/>
      <point x="202" y="-111"/>
    </contour>
    <contour>
      <point x="350" y="-310" type="line"/>
      <point x="442" y="166" type="line"/>
      <point x="370" y="166" type="line"/>
      <point x="285" y="-258" type="line"/>
      <point x="341" y="-310" type="line"/>
    </contour>
    <contour>
      <point x="616" y="545" type="line"/>
      <point x="618" y="555" type="line"/>
      <point x="586" y="620" type="line"/>
      <point x="33" y="620" type="line"/>
      <point x="31" y="610" type="line"/>
      <point x="63" y="545" type="line"/>
    </contour>
  </outline>
</glyph>
<glyph name="dVCa" format="2">
  <advance width="1004"/>
  <outline>
    <contour>
      <point x="251" y="122" type="curve" smooth="yes"/>
      <point x="356" y="122"/>
      <point x="450" y="177"/>
      <point x="450" y="277" type="curve" smooth="yes"/>
      <point x="450" y="366"/>
      <point x="377" y="458"/>
      <point x="248" y="458" type="curve" smooth="yes"/>
      <point x="139" y="458"/>
      <point x="51" y="393"/>
      <point x="51" y="300" type="curve" smooth="yes"/>
      <point x="51" y="225"/>
      <point x="108" y="122"/>
    </contour>
    <contour>
      <point x="220" y="188" type="curve" smooth="yes"/>
      <point x="157" y="188"/>
      <point x="117" y="223"/>
      <point x="117" y="269" type="curve" smooth="yes"/>
      <point x="117" y="331"/>
      <point x="188" y="383"/>
      <point x="281" y="383" type="curve" smooth="yes"/>
      <point x="346" y="383"/>
      <point x="389" y="358"/>
      <point x="389" y="309" type="curve" smooth="yes"/>
      <point x="389" y="237"/>
      <point x="295" y="188"/>
    </contour>
    <contour>
      <point x="667" y="128" type="curve" smooth="yes"/>
      <point x="730" y="128"/>
      <point x="768" y="148"/>
      <point x="837" y="195" type="curve"/>
      <point x="860" y="304" type="line"/>
      <point x="738" y="212"/>
      <point x="680" y="192"/>
      <point x="639" y="192" type="curve" smooth="yes"/>
      <point x="595" y="192"/>
      <point x="552" y="212"/>
      <point x="552" y="273" type="curve" smooth="yes"/>
      <point x="552" y="354"/>
      <point x="657" y="373"/>
      <point x="755" y="373" type="curve"/>
      <point x="762" y="412" type="line"/>
      <point x="557" y="412" type="line"/>
      <point x="506" y="374"/>
      <point x="486" y="338"/>
      <point x="486" y="290" type="curve" smooth="yes"/>
      <point x="486" y="216"/>
      <point x="546" y="128"/>
    </contour>
    <contour>
      <point x="534" y="370" type="line"/>
      <point x="723" y="387" type="line"/>
      <point x="754" y="373" type="line"/>
      <point x="768" y="373"/>
      <point x="774" y="373"/>
      <point x="796" y="372" type="curve"/>
      <point x="798" y="382" type="line"/>
      <point x="767" y="446" type="line"/>
      <point x="380" y="446" type="line"/>
      <point x="378" y="436" type="line"/>
      <point x="394" y="417" type="line"/>
      <point x="378" y="408" type="line"/>
      <point x="369" y="370" type="line"/>
    </contour>
    <contour>
      <point x="1089" y="545" type="line"/>
      <point x="1091" y="555" type="line"/>
      <point x="1060" y="620" type="line"/>
      <point x="34" y="620" type="line"/>
      <point x="32" y="610" type="line"/>
      <point x="63" y="545" type="line"/>
    </contour>
    <contour>
      <point x="866" y="-10" type="line"/>
      <point x="979" y="581" type="line"/>
      <point x="895" y="581" type="line"/>
      <point x="789" y="52" type="line"/>
      <point x="856" y="-10" type="line"/>
    </contour>
  </outline>
  <guideline angle="0" x="0" y="128"/>
</glyph>
<glyph name="dVR.half" format="2">
  <advance width="346"/>
  <outline>
    <contour>
      <point x="250" y="137" type="curve" smooth="yes"/>
      <point x="378" y="137"/>
      <point x="462" y="213"/>
      <point x="462" y="298" type="curve" smooth="yes"/>
      <point x="462" y="382"/>
      <point x="389" y="467"/>
      <point x="270" y="467" type="curve" smooth="yes"/>
      <point x="147" y="467"/>
      <point x="62" y="396"/>
      <point x="62" y="302" type="curve" smooth="yes"/>
      <point x="62" y="226"/>
      <point x="125" y="137"/>
    </contour>
    <contour>
      <point x="299" y="392" type="curve" smooth="yes"/>
      <point x="355" y="392"/>
      <point x="401" y="371"/>
      <point x="401" y="322" type="curve" smooth="yes"/>
      <point x="401" y="248"/>
      <point x="295" y="197"/>
      <point x="218" y="197" type="curve" smooth="yes"/>
      <point x="161" y="197"/>
      <point x="128" y="224"/>
      <point x="128" y="269" type="curve" smooth="yes"/>
      <point x="128" y="343"/>
      <point x="214" y="392"/>
    </contour>
    <contour>
      <point x="503" y="545" type="line"/>
      <point x="505" y="555" type="line"/>
      <point x="474" y="620" type="line"/>
      <point x="34" y="620" type="line"/>
      <point x="32" y="610" type="line"/>
      <point x="63" y="545" type="line"/>
    </contour>
    <contour>
      <point x="377" y="166" type="line" smooth="yes"/>
      <point x="416" y="190"/>
      <point x="446" y="219"/>
      <point x="459" y="271" type="curve"/>
      <point x="196" y="149" type="line"/>
      <point x="195" y="141" type="line"/>
      <point x="55" y="59" type="line"/>
      <point x="104" y="-2" type="line"/>
    </contour>
  </outline>
</glyph>
<glyph name="dY.half" format="2">
  <advance width="306"/>
  <outline>
    <contour>
      <point x="276" y="136" type="curve" smooth="yes"/>
      <point x="325" y="136"/>
      <point x="378" y="150"/>
      <point x="437" y="200" type="curve"/>
      <point x="409" y="269" type="line"/>
      <point x="349" y="220"/>
      <point x="293" y="199"/>
      <point x="243" y="199" type="curve" smooth="yes"/>
      <point x="178" y="199"/>
      <point x="136" y="242"/>
      <point x="136" y="296" type="curve" smooth="yes"/>
      <point x="136" y="309"/>
      <point x="139" y="323"/>
      <point x="144" y="337" type="curve"/>
      <point x="96" y="297" type="line"/>
      <point x="255" y="321"/>
      <point x="299" y="377"/>
      <point x="299" y="435" type="curve" smooth="yes"/>
      <point x="299" y="476"/>
      <point x="287" y="517"/>
      <point x="264" y="573" type="curve"/>
      <point x="207" y="573" type="line"/>
      <point x="227" y="531"/>
      <point x="235" y="508"/>
      <point x="235" y="479" type="curve" smooth="yes"/>
      <point x="235" y="428"/>
      <point x="183" y="397"/>
      <point x="64" y="371" type="curve"/>
      <point x="62" y="245"/>
      <point x="157" y="136"/>
    </contour>
    <contour>
      <point x="463" y="545" type="line"/>
      <point x="465" y="555" type="line"/>
      <point x="434" y="620" type="line"/>
      <point x="34" y="620" type="line"/>
      <point x="32" y="610" type="line"/>
      <point x="63" y="545" type="line"/>
    </contour>
  </outline>
</glyph>
